<svg xmlns="http://www.w3.org/2000/svg" width="28.557" height="27.88" viewBox="0 0 28.557 27.88">
  <g id="Gruppe_14220" data-name="Gruppe 14220" transform="translate(-224.185 -67.641)">
    <g id="bag" transform="translate(224.185 67.641)">
      <path id="Pfad_47290" data-name="Pfad 47290" d="M292.94,77.119c-.231-.154-.463-.309-.694-.231h-7.182V73.879a6.095,6.095,0,0,0-12.189,0h0v3.04h-7.321c-.231,0-.54,0-.694.231a.77.77,0,0,0-.231.694l2.623,14.2a4.39,4.39,0,0,0,4.32,3.626h14.658a4.63,4.63,0,0,0,4.32-3.7l2.623-14.118A1.127,1.127,0,0,0,292.94,77.119Zm-18.284-.309V73.833a4.273,4.273,0,0,1,4.235-4.274h0a4.289,4.289,0,0,1,4.243,4.243v3.009Zm16.433,1.929L288.7,91.7h0a2.492,2.492,0,0,1-2.469,2.083H271.57A2.484,2.484,0,0,1,269.1,91.7L266.71,78.74Zm-7.021,6.712a.9.9,0,0,0,.926-.864V82.443a.926.926,0,1,0-1.852,0h0v2.083A.941.941,0,0,0,284.068,85.451Zm-10.338,0a.9.9,0,0,0,.926-.864V82.443a.926.926,0,1,0-1.852,0h0v2.083a.9.9,0,0,0,.863.926h.063Z" transform="translate(-264.615 -67.786)"/>
    </g>
  </g>
</svg>
