<svg xmlns="http://www.w3.org/2000/svg" width="55.355" height="48.732" viewBox="0 0 55.355 48.732">
  <g id="Gruppe_15329" data-name="Gruppe 15329" transform="translate(-378.824 -21.983)">
    <path id="Pfad_47944" data-name="Pfad 47944" d="M42.977,20.407h-2.7l.909-10.436V9.887a1.141,1.141,0,0,0-.669-1.036L40.454,8.8,26.275,8.76a1.14,1.14,0,1,0,0,2.28H38.81L37.064,31.123H12.487l.413-5.239a1.13,1.13,0,0,0-1.1-1.027A1.229,1.229,0,0,0,10.61,25.9L9.342,39.962a1.2,1.2,0,0,0,.191.9.952.952,0,0,0,.776.314c.825,0,2.577.006,3.055.008a5.972,5.972,0,0,0,11.726,0H36.139a5.972,5.972,0,0,0,5.847,4.836c.059,0,.118,0,.178,0a6.078,6.078,0,0,0,5.7-4.838h2.909a1.082,1.082,0,0,0,1.13-1.034c.061-.49.6-4.872.856-7.788.083-.966.123-1.638.123-2.053A9.94,9.94,0,0,0,42.977,20.407ZM39.771,26.26l.312-3.571h2.17l-.31,3.571ZM19.247,36.369a3.695,3.695,0,1,1-3.695,3.695A3.7,3.7,0,0,1,19.247,36.369Zm19.2-3.449Zm.214-.17Zm5.564-6.381.307-3.522a7.634,7.634,0,0,1,6.082,7.467c0,.156-.008.35-.02.579a4.37,4.37,0,0,1-1.855-1.574A7.344,7.344,0,0,0,44.221,26.369Zm6.165,6.875c-.171,1.863-.428,4.087-.621,5.68h-1.9a5.973,5.973,0,0,0-11.726,0H25.11a5.973,5.973,0,0,0-11.726,0H11.732l.533-5.516H38.094a1.067,1.067,0,0,0,1.134-1.044l.333-3.826h3.4c2.052,0,2.949,1.029,3.983,2.213A6.422,6.422,0,0,0,50.386,33.244ZM42,36.369a3.695,3.695,0,1,1-3.695,3.695A3.7,3.7,0,0,1,42,36.369Zm8.979,4.384h0Zm.294-.169Zm-.11.084ZM42,43.152a3.088,3.088,0,1,0-3.089-3.088A3.091,3.091,0,0,0,42,43.152Zm-.808-3.087a.808.808,0,1,1,.236.572A.8.8,0,0,1,41.193,40.065ZM19.247,43.152a3.088,3.088,0,1,0-3.089-3.088A3.091,3.091,0,0,0,19.247,43.152Zm-.81-3.087a.809.809,0,1,1,.808.81A.81.81,0,0,1,18.438,40.065Z" transform="translate(381.297 24.691)"/>
    <g id="uhr" transform="translate(396.824 39.983)">
      <path id="uhr-2" data-name="uhr" d="M13.189,0A13.189,13.189,0,1,0,26.378,13.189,13.189,13.189,0,0,0,13.189,0Zm0,24.561A11.364,11.364,0,1,1,24.553,13.189,11.364,11.364,0,0,1,13.189,24.561Z" transform="translate(-18 -18)"/>
    </g>
    <path id="Pfad_47945" data-name="Pfad 47945" d="M13054.189,7978.148v8.836l4.929-4.309" transform="translate(-12662.176 -7951.639)" fill="none" stroke="#000" stroke-linecap="round" stroke-linejoin="round" stroke-width="2"/>
  </g>
</svg>
