<svg xmlns="http://www.w3.org/2000/svg" width="80.647" height="33.996" viewBox="0 0 80.647 33.996">
  <g id="dpd" transform="translate(98.114 48.084)">
    <path id="Pfad_98474" data-name="Pfad 98474" d="M-51.81-22.381a20.419,20.419,0,0,1-5.119.6c-4.351,0-7.207-2.263-7.207-6.406A6.168,6.168,0,0,1-62.3-32.909a6.168,6.168,0,0,1,4.748-1.757,5.9,5.9,0,0,1,2.367.383V-40h3.378Zm-3.378-8.982a5.084,5.084,0,0,0-2.089-.383,3.174,3.174,0,0,0-2.507.932,3.174,3.174,0,0,0-.9,2.517c0,2.332,1.462,3.655,3.864,3.655a7.1,7.1,0,0,0,1.636-.139Zm31.127,8.982a20.487,20.487,0,0,1-5.153.6c-4.317,0-7.208-2.263-7.208-6.406a6.169,6.169,0,0,1,1.834-4.718,6.169,6.169,0,0,1,4.747-1.758,5.8,5.8,0,0,1,2.368.383V-40h3.412Zm-3.412-8.982a4.915,4.915,0,0,0-2.054-.383,3.184,3.184,0,0,0-2.527.921,3.183,3.183,0,0,0-.92,2.528c0,2.332,1.5,3.655,3.9,3.655a6.827,6.827,0,0,0,1.6-.139Zm-19.01,0a5.464,5.464,0,0,1,2.019-.314,3.168,3.168,0,0,1,2.523.841,3.168,3.168,0,0,1,.993,2.467,3.427,3.427,0,0,1-1,2.713,3.427,3.427,0,0,1-2.722.978v2.89h.174c4.387,0,7-2.4,7-6.687,0-3.9-2.786-6.2-6.895-6.2a15.3,15.3,0,0,0-5.5,1.045v16.537h3.413Z" transform="translate(6.594 1.569)" fill-rule="evenodd"/>
    <path id="Pfad_98475" data-name="Pfad 98475" d="M-68.539-38v-.007l-.3.19-.013-.017-.383.239h0l-.315.172h0l-.315.172h0l-.315.172h0l-.315.172.011.012-.324.161.013.016-.291.159h0l-.315.172h0l-.315.172h0l-.315.172h0l-.315.172h0l-.315.172.012.016-.291.159.006.006-.239.149-.014-.016-.3.19-.014-.017-.3.191-.014-.017-.3.191-.014-.017-.277.176h0l-.383.239h0l-.314.172h0l-.315.172h0l-.315.172h0l-.315.172h0l-.315.172.013.014-.291.16h0l-.315.172h0l-.315.172v.006l-.214.134a.081.081,0,0,0-.027.008l-.007-.008a.6.6,0,0,1-.445.008l-.007-.008h-.036l-.173-.14.059.069-.685-.417c-.07-.036-.105-.105-.174-.174a1.294,1.294,0,0,1-.1-.239v-.941a.634.634,0,0,1,.1-.281h0a.269.269,0,0,1,.14-.139l.127-.085.012.014.277-.176h0l.3-.19.014.017.3-.191.013.017.3-.191.014.017.383-.239h0l.315-.172h0l.315-.172-.012-.014.291-.159h0l.315-.172h0l.315-.172h0l.315-.172h0l.315-.172h0l.315-.172-.011-.013.324-.161-.013-.016.291-.159h0l.315-.172h0l.315-.171v-.007l.239-.149.013.017.277-.177h0l.308-.18h0l.3-.19.013.017.383-.245h0l.315-.172h0l.315-.172h0l.315-.172-.01-.012.324-.162-.013-.014.291-.16h0l.315-.172h0l.315-.172h0l.315-.172h0l.246-.137-.654-.34-.007-.007-.824-.441-.011-.012-.866-.447v-.006l-.825-.441-.011-.012-.825-.441-.011-.012-.865-.447v-.006l-.824-.441-.012-.012-.824-.441-.011-.012-.866-.447h0l-.825-.441-.011-.013-.8-.413-.033-.039-.865-.447v-.006l-.824-.439-.012-.013-1.075-.591.008.011-.844-.463.044.051-.66-.358-.011-.013-.209-.1a.955.955,0,0,0-.442-.128l-.011-.012h-.105a1.339,1.339,0,0,0-.3.044l-.008-.01a.486.486,0,0,1-.05.023l-.054.012.007.008a.407.407,0,0,0-.112.062l-.119.059-.021-.024-.382.209h0l-.315.172h0l-.315.172h0l-.315.172h0l-.227.119-.019-.021-.3.19-.014-.017-.383.209h0l-.315.172h0l-.315.172h0l-.315.172h0l-.228.119-.018-.021-.418.209.011.012-.324.162.01.012-.324.162.011.012-.324.162.01.012-.324.161.011.013-.209.1-.011-.012-.418.209.011.012-.324.162.011.012-.254.127h0l-.069.035h0l-.315.172h0l-.315.172h0l-.227.119-.018-.021-.383.209h0l-.315.172h0l-.315.172h0l-.315.172h0l-.315.172h0l-.227.119-.019-.021-.383.209h0l-.315.172h0l-.315.172h0l-.315.172h0l-.315.172h0l-.227.119v.059l-.383.208h0l-.314.172h0l-.315.172h0l-.315.172h0l-.315.172h0l-.227.119-.019-.021-.418.209.014.017-.153.087.408.226.044.054,1.114.608.694.4h0l1.114.662-.036-.042.716.4.021.025.884.5.021.025,1.035.583.739.425h0l.9.521h0l.036.019.208.119-.01-.012.626.342.045.054.884.5.023.025,1.114.627-.027-.031.933.553-.027-.031.933.554-.036-.043.644.358.054.062.86.469.045.054.955.522.26.174a.535.535,0,0,1,.264.337l-.02-.024c0,.035.036.07.036.105v12.664a.248.248,0,0,1-.03.111l-.006-.007a.338.338,0,0,1-.013.037.23.23,0,0,1-.022.033l.007.007a.467.467,0,0,1-.172.211l-.01-.01v.016a.239.239,0,0,1-.033.019l-.239.143h0l-.308.18V-18.2l-.239.14a.447.447,0,0,1-.209.035l.018.021a.223.223,0,0,1-.053.013h-.036a.51.51,0,0,1-.239-.069l-.063-.029h0l-.765-.418a.478.478,0,0,1-.239-.418V-30.2a.288.288,0,0,0-.14-.209l-.515-.3-.008-.01-.9-.521h0l-.035-.019-.209-.119.011.012L-87-31.711l-.047-.054-1.114-.627.026.031-.931-.553.027.031-.933-.554.036.042-.644-.358-.054-.062-1.114-.608-.695-.4h0l-1.114-.662.036.042-.711-.4-.021-.025-1.114-.627.026.031-.931-.553.026.031-.679-.4-.008-.012-.112-.061-.133-.078.011.012-.626-.342-.047-.054-.278-.14V-23.09a1.2,1.2,0,0,0,.254.672l-.045-.045a1.034,1.034,0,0,1,.072.082.976.976,0,0,0,.239.23l.8.436.691.4h0l.847.487.059.07.86.468.047.054,1.149.662-.027-.031.933.553-.032-.037.726.418h0l.9.521h0l.9.521h0l.9.519h0l.914.527.027.031,1.114.662-.027-.031.933.553-.032-.037.726.418h0l.9.519h0l.239.139h0l.239.139a.725.725,0,0,0,.3.091l.012.014h.208a1.326,1.326,0,0,0,.228-.018l.017.018.313-.105.1-.069h0l.315-.172h0l.315-.172-.013-.016.293-.159h0l.315-.172h0l.239-.149.014.016.3-.19.014.017.3-.191.014.017.383-.239-.013-.016.291-.159h0l.315-.172h0l.315-.172h0l.315-.172h0l.315-.172-.013-.016.291-.159h0l.315-.172h0l.239-.149.013.016.3-.19.014.017.277-.177h0l.383-.239h0l.315-.172h0l.315-.172h0l.315-.172h0l.315-.172-.012-.016.291-.159h0l.315-.172v-.006l.239-.149.014.016.3-.19.014.017.276-.177h0l.383-.239h0l.315-.172h0l.314-.172h0l.315-.172h0l.315-.172-.012-.016.291-.159h0l.315-.172h0l.315-.172h0l.239-.149.014.017.276-.177h0l.3-.191.014.017.383-.239h0l.315-.172h0l.315-.172h0l.315-.172-.013-.016.291-.159h0l.209-.105.036-.035a2.759,2.759,0,0,0,.313-.313l-.016-.018a1.119,1.119,0,0,0,.155-.331l-.011-.012a.789.789,0,0,0,.045-.232V-38.081Z" transform="translate(0)" fill-rule="evenodd"/>
  </g>
</svg>
