<svg xmlns="http://www.w3.org/2000/svg" width="30.869" height="25.861" viewBox="0 0 30.869 25.861">
  <path id="icon-heart" d="M33.973,10.776h0a7.493,7.493,0,0,0-10.6-.086l-.085.086h0L20.7,13.368l-2.592-2.592A7.556,7.556,0,0,0,7.426,21.458L20.072,34.1a.9.9,0,0,0,1.276.059c.02-.019.041-.038.06-.059h0L34.053,21.458a7.566,7.566,0,0,0-.08-10.682Zm-1.257,9.347L20.7,32.141,8.681,20.123a5.721,5.721,0,0,1,8.09-8.09l3.22,3.22a.9.9,0,0,0,1.276.059c.02-.019.041-.038.06-.059h0l3.22-3.22a5.749,5.749,0,1,1,8.17,8.091Z" transform="translate(-5.351 -8.539)"/>
</svg>
