<svg id="Gruppe_13723" data-name="Gruppe 13723" xmlns="http://www.w3.org/2000/svg" width="51.035" height="39.698" viewBox="0 0 51.035 39.698">
  <path id="Pfad_1618" data-name="Pfad 1618" d="M.479.394V-2.231A1.557,1.557,0,0,0-1.166-3.894a1.62,1.62,0,0,0-1.47.744,1.537,1.537,0,0,0-1.383-.744,1.383,1.383,0,0,0-1.224.622v-.516h-.91V.394h.918V-1.925A.978.978,0,0,1-4.211-3.036c.6,0,.91.393.91,1.1V.394h.919V-1.925A.986.986,0,0,1-1.359-3.036c.622,0,.919.393.919,1.1V.394ZM5.606-1.7V-3.788H4.7v.508a1.585,1.585,0,0,0-1.321-.613A2.1,2.1,0,0,0,1.284-1.7,2.1,2.1,0,0,0,3.375.5,1.588,1.588,0,0,0,4.7-.114V.394h.91Zm-3.385,0A1.254,1.254,0,0,1,3.489-3.036,1.253,1.253,0,0,1,4.748-1.7,1.253,1.253,0,0,1,3.489-.359,1.254,1.254,0,0,1,2.221-1.7M25.077-3.9a2.36,2.36,0,0,1,.9.168,2.191,2.191,0,0,1,.714.462,2.145,2.145,0,0,1,.472.7,2.216,2.216,0,0,1,.17.873,2.216,2.216,0,0,1-.17.873,2.145,2.145,0,0,1-.472.7,2.191,2.191,0,0,1-.714.462,2.36,2.36,0,0,1-.9.168,2.36,2.36,0,0,1-.9-.168,2.17,2.17,0,0,1-.711-.462,2.156,2.156,0,0,1-.47-.7,2.216,2.216,0,0,1-.17-.873A2.216,2.216,0,0,1,23-2.57a2.156,2.156,0,0,1,.47-.7,2.17,2.17,0,0,1,.711-.462,2.36,2.36,0,0,1,.9-.168m0,.86a1.351,1.351,0,0,0-.52.1,1.235,1.235,0,0,0-.415.275,1.3,1.3,0,0,0-.275.424,1.415,1.415,0,0,0-.1.544,1.405,1.405,0,0,0,.1.543,1.273,1.273,0,0,0,.275.424,1.222,1.222,0,0,0,.415.276,1.372,1.372,0,0,0,.52.1,1.372,1.372,0,0,0,.52-.1,1.242,1.242,0,0,0,.417-.276,1.262,1.262,0,0,0,.277-.424,1.426,1.426,0,0,0,.1-.543,1.435,1.435,0,0,0-.1-.544,1.283,1.283,0,0,0-.277-.424A1.255,1.255,0,0,0,25.6-2.94a1.351,1.351,0,0,0-.52-.1M10.557-1.7a2.005,2.005,0,0,0-1.986-2.2A2.044,2.044,0,0,0,6.489-1.7,2.062,2.062,0,0,0,8.633.5a2.544,2.544,0,0,0,1.715-.585L9.9-.762a1.992,1.992,0,0,1-1.216.438A1.161,1.161,0,0,1,7.434-1.347H10.54c.009-.114.017-.227.017-.35M7.443-2.065A1.077,1.077,0,0,1,8.554-3.08,1.038,1.038,0,0,1,9.612-2.065Zm6.947-.656a2.693,2.693,0,0,0-1.3-.359c-.5,0-.8.184-.8.49,0,.28.315.359.709.411l.428.061c.911.131,1.462.516,1.462,1.251,0,.8-.7,1.366-1.908,1.366A3.017,3.017,0,0,1,11.17-.044L11.6-.752a2.228,2.228,0,0,0,1.391.437c.621,0,.953-.183.953-.507,0-.237-.236-.368-.734-.438l-.429-.061c-.937-.131-1.444-.551-1.444-1.234,0-.831.682-1.339,1.742-1.339a3.126,3.126,0,0,1,1.706.438Zm4.373-.236H17.274v1.889c0,.42.149.7.6.7A1.683,1.683,0,0,0,18.683-.6l.262.778A2.129,2.129,0,0,1,17.808.5c-1.076,0-1.452-.578-1.452-1.549V-2.957h-.849v-.831h.849V-5.057h.919v1.269h1.487Zm3.149-.937a1.952,1.952,0,0,1,.648.114l-.28.857a1.485,1.485,0,0,0-.569-.1c-.595,0-.892.385-.892,1.076V.394h-.91V-3.788h.9v.508a1.234,1.234,0,0,1,1.1-.613m6.3,3.679a.415.415,0,0,1,.164.032.433.433,0,0,1,.135.089A.423.423,0,0,1,28.6.039.409.409,0,0,1,28.634.2.409.409,0,0,1,28.6.362a.427.427,0,0,1-.226.222.416.416,0,0,1-.164.033.43.43,0,0,1-.3-.123.414.414,0,0,1-.091-.133A.391.391,0,0,1,27.784.2a.391.391,0,0,1,.033-.162.4.4,0,0,1,.091-.133.423.423,0,0,1,.3-.122m0,.74A.323.323,0,0,0,28.336.5a.339.339,0,0,0,.1-.07.336.336,0,0,0,.069-.1.336.336,0,0,0,0-.253.341.341,0,0,0-.069-.1.315.315,0,0,0-.1-.068.306.306,0,0,0-.125-.026.317.317,0,0,0-.128.026.308.308,0,0,0-.1.068.322.322,0,0,0-.069.1A.313.313,0,0,0,27.886.2a.318.318,0,0,0,.094.23.331.331,0,0,0,.1.07.336.336,0,0,0,.128.025m.024-.518a.181.181,0,0,1,.115.032.112.112,0,0,1,.04.091.1.1,0,0,1-.032.079.146.146,0,0,1-.091.039l.126.146h-.1L28.177.248h-.038V.392h-.082V.007Zm-.1.072v.1h.095a.1.1,0,0,0,.053-.012.044.044,0,0,0,.019-.04.042.042,0,0,0-.019-.038.093.093,0,0,0-.053-.013Z" transform="translate(14.95 39.081)"/>
  <path id="Pfad_1620" data-name="Pfad 1620" d="M1.407,1.139a15.748,15.748,0,0,1,6.024-12.4,15.706,15.706,0,0,0-9.747-3.371A15.771,15.771,0,0,0-18.086,1.139,15.771,15.771,0,0,0-2.315,16.91a15.706,15.706,0,0,0,9.747-3.371,15.748,15.748,0,0,1-6.024-12.4" transform="translate(18.086 14.633)"/>
  <path id="Pfad_1621" data-name="Pfad 1621" d="M.023.044V-.463h.2v-.1H-.294v.1h.2V.044Zm1.012,0V-.568H.875L.691-.147.508-.568H.347V.044H.46V-.417l.172.4H.75l.172-.4V.044Z" transform="translate(49.507 25.501)"/>
  <path id="Pfad_1622" data-name="Pfad 1622" d="M1.842,1.139A15.771,15.771,0,0,1-13.928,16.91a15.7,15.7,0,0,1-9.747-3.371,15.748,15.748,0,0,0,6.024-12.4,15.748,15.748,0,0,0-6.024-12.4,15.7,15.7,0,0,1,9.747-3.371A15.771,15.771,0,0,1,1.842,1.139" transform="translate(49.193 14.633)"/>
</svg>
