<svg id="Gruppe_13722" data-name="Gruppe 13722" xmlns="http://www.w3.org/2000/svg" width="50.386" height="39.19" viewBox="0 0 50.386 39.19">
  <path id="Pfad_1604" data-name="Pfad 1604" d="M.473.418v-2.6A1.54,1.54,0,0,0-.956-3.82a1.72,1.72,0,0,0-.2,0,1.6,1.6,0,0,0-1.453.736,1.518,1.518,0,0,0-1.367-.736,1.369,1.369,0,0,0-1.211.614v-.51h-.9V.418h.909V-1.857a.968.968,0,0,1,.829-1.091.945.945,0,0,1,.183-.008c.6,0,.9.389.9,1.09v2.3h.909V-1.857a.972.972,0,0,1,.837-1.091.948.948,0,0,1,.175-.008c.613,0,.908.389.908,1.09v2.3ZM13.912-3.716H12.433V-4.971h-.909v1.255H10.7v.821h.84v1.9c0,.96.372,1.531,1.436,1.531A2.1,2.1,0,0,0,14.1.219l-.26-.77a1.661,1.661,0,0,1-.8.234c-.432,0-.6-.277-.6-.692V-2.895h1.47Zm7.673-.1a1.219,1.219,0,0,0-1.09.606v-.5H19.6V.418h.9V-1.9c0-.683.294-1.064.864-1.064a1.456,1.456,0,0,1,.563.1l.277-.864a1.912,1.912,0,0,0-.64-.113Zm-11.6.433A3.089,3.089,0,0,0,8.3-3.821c-1.047,0-1.73.5-1.73,1.324,0,.675.5,1.091,1.427,1.22l.433.06c.493.069.726.2.726.432,0,.32-.329.5-.943.5A2.2,2.2,0,0,1,6.836-.714l-.432.7a2.98,2.98,0,0,0,1.79.536C9.388.522,10.08-.04,10.08-.828S9.535-1.934,8.635-2.064L8.2-2.125c-.389-.052-.7-.129-.7-.406s.294-.484.787-.484a2.662,2.662,0,0,1,1.3.355Zm24.1-.433a1.219,1.219,0,0,0-1.09.606v-.5H32.1V.418H33V-1.9c0-.683.294-1.064.864-1.064a1.456,1.456,0,0,1,.563.1l.277-.864a1.912,1.912,0,0,0-.64-.113ZM22.489-1.657A2.087,2.087,0,0,0,24.5.507c.065,0,.13,0,.2,0A2.16,2.16,0,0,0,26.183.012l-.433-.726a1.814,1.814,0,0,1-1.081.372,1.329,1.329,0,0,1-1.217-1.431A1.328,1.328,0,0,1,24.668-2.99a1.814,1.814,0,0,1,1.081.372l.433-.726a2.167,2.167,0,0,0-1.488-.494,2.09,2.09,0,0,0-2.2,1.968c0,.065,0,.129,0,.2Zm8.425,0V-3.716h-.9v.5a1.572,1.572,0,0,0-1.3-.606,2.163,2.163,0,0,0-2.162,2.163A2.162,2.162,0,0,0,28.717.5a1.569,1.569,0,0,0,1.3-.606V.4h.9Zm-3.348,0a1.25,1.25,0,0,1,1.321-1.175,1.25,1.25,0,0,1,1.174,1.321A1.25,1.25,0,0,1,28.82-.334a1.241,1.241,0,0,1-1.257-1.225c0-.033,0-.066,0-.1M16.71-3.821a2.163,2.163,0,0,0-2.132,2.193A2.162,2.162,0,0,0,16.771.5a2.513,2.513,0,0,0,1.717-.562l-.433-.666a1.968,1.968,0,0,1-1.2.432A1.146,1.146,0,0,1,15.616-1.3h3.071v-.346a1.966,1.966,0,0,0-1.964-2.163Zm0,.805a1.025,1.025,0,0,1,1.047,1H15.594a1.063,1.063,0,0,1,1.1-1ZM39.248-1.649V-5.377h-.864v2.162a1.572,1.572,0,0,0-1.3-.606,2.163,2.163,0,0,0-2.162,2.163A2.162,2.162,0,0,0,37.086.5a1.569,1.569,0,0,0,1.3-.606V.4h.864Zm1.5,1.466a.446.446,0,0,1,.164.03.426.426,0,0,1,.135.087.418.418,0,0,1,.091.129.4.4,0,0,1,0,.32.418.418,0,0,1-.091.129A.426.426,0,0,1,40.913.6a.41.41,0,0,1-.164.034A.434.434,0,0,1,40.36.384a.4.4,0,0,1,0-.32.418.418,0,0,1,.091-.129.422.422,0,0,1,.134-.087.458.458,0,0,1,.178-.03Zm0,.731a.292.292,0,0,0,.125-.026.32.32,0,0,0,.1-.069.32.32,0,0,0,0-.432.32.32,0,0,0-.1-.069.292.292,0,0,0-.125-.026.309.309,0,0,0-.125.026.3.3,0,0,0-.1.069.32.32,0,0,0,0,.432.321.321,0,0,0,.1.069.3.3,0,0,0,.138.026Zm.026-.514a.169.169,0,0,1,.112.034.106.106,0,0,1,.039.091.1.1,0,0,1-.03.078.151.151,0,0,1-.091.04l.125.142h-.1L40.715.276h-.039V.418h-.083V.038ZM40.68.107v.1h.095a.085.085,0,0,0,.052,0,.041.041,0,0,0,0-.039.041.041,0,0,0,0-.039.085.085,0,0,0-.052,0ZM35.923-1.649a1.249,1.249,0,0,1,1.32-1.175A1.25,1.25,0,0,1,38.418-1.5,1.25,1.25,0,0,1,37.176-.325,1.241,1.241,0,0,1,35.92-1.551c0-.033,0-.066,0-.1m-30.376,0V-3.716h-.9v.5a1.569,1.569,0,0,0-1.3-.606A2.163,2.163,0,0,0,1.187-1.657,2.162,2.162,0,0,0,3.35.5,1.566,1.566,0,0,0,4.647-.1V.4h.9Zm-3.348,0A1.251,1.251,0,0,1,3.52-2.824,1.252,1.252,0,0,1,4.7-1.5,1.25,1.25,0,0,1,3.454-.325,1.241,1.241,0,0,1,2.188-1.542c0-.036,0-.071,0-.107Z" transform="translate(8.694 38.556)"/>
  <path id="Pfad_1606" data-name="Pfad 1606" d="M1.389,1.124A15.541,15.541,0,0,1,7.337-11.12,15.571,15.571,0,0,0-14.527-8.5a15.571,15.571,0,0,0,2.621,21.864,15.568,15.568,0,0,0,19.242,0A15.544,15.544,0,0,1,1.389,1.124" transform="translate(17.855 14.451)"/>
  <path id="Pfad_1607" data-name="Pfad 1607" d="M1.819,1.125a15.571,15.571,0,0,1-15.571,15.57,15.567,15.567,0,0,1-9.623-3.33A15.571,15.571,0,0,0-20.754-8.5a15.54,15.54,0,0,0-2.621-2.62A15.569,15.569,0,0,1-1.511-8.5,15.565,15.565,0,0,1,1.819,1.12Z" transform="translate(48.567 14.451)"/>
  <path id="Pfad_1608" data-name="Pfad 1608" d="M.022.044v-.5h.2v-.1H-.289v.1h.221v.5Zm1,0V-.562H.866L.684-.13.5-.562H.364V.044H.476V-.41l.169.393H.762L.931-.41V.048Z" transform="translate(48.876 25.176)"/>
</svg>
