<svg xmlns="http://www.w3.org/2000/svg" width="91.486" height="8.792" viewBox="0 0 91.486 8.792">
  <path id="Pfad_46027" data-name="Pfad 46027" d="M8.509,3.754,7.384,9.085,4.008,3.754H2.275l-1.811,8.5h2.07L3.672,6.935l3.376,5.319h1.72l1.811-8.5Zm9.274,8.5h2.1l-2.225-8.5h-2.07l-5.859,8.5h2.238l1.177-1.822h4.217ZM14.11,8.939,16.244,5.66l.763,3.279ZM25.453,12.4a4.936,4.936,0,0,0,3.829-1.469L28.04,9.741a3.252,3.252,0,0,1-2.406.984c-1.63,0-2.535-.85-2.535-2.137a3.215,3.215,0,0,1,3.363-3.3,2.529,2.529,0,0,1,2.186,1l1.513-1.166A4.127,4.127,0,0,0,26.6,3.608c-3.363,0-5.626,2.2-5.626,5.1C20.978,10.894,22.685,12.4,25.453,12.4Zm12.74-8.646-.711,3.34h-4.1l.711-3.34H31.985l-1.811,8.5h2.108l.737-3.461h4.1l-.737,3.461h2.1l1.811-8.5Zm11.033,0L47.843,10.3,43.795,3.754H42.734l-1.811,8.5h1.293L43.6,5.709l4.048,6.545H48.71l1.811-8.5Zm9.041,8.5h1.281l-2.289-8.5H55.979l-5.924,8.5h1.4l1.436-2.125h4.838Zm-4.721-3.1,2.846-4.19,1.074,4.19ZM69.2,3.754,68.422,7.4h-5.2L64,3.754H62.7l-1.811,8.5h1.293l.8-3.765h5.2l-.8,3.765H68.68l1.811-8.5Zm12.534,0L76.777,9.741,74.255,3.754H73.208l-1.811,8.5h1.242l1.332-6.266,2.264,5.234h.595L81.11,6.11l-1.319,6.145h1.242l1.811-8.5Zm10,1.057.22-1.057H85.56l-1.811,8.5h6.584l.22-1.057h-5.29l.582-2.744H90.4l.22-1.032H86.064l.556-2.611Z" transform="translate(-0.464 -3.608)"/>
</svg>
