<svg xmlns="http://www.w3.org/2000/svg" width="36" height="34.63" viewBox="0 0 36 34.63">
  <g id="natrue" transform="translate(18 17.315)">
    <g id="natrue-2" data-name="natrue" transform="translate(-18 -17.315)">
      <path id="Pfad_46083" data-name="Pfad 46083" d="M16.8,10.28A16,16,0,0,0,7,24.82c0,8.75,7.38,15.86,16.46,15.86a18.47,18.47,0,0,0,10.35-3.53,14.69,14.69,0,0,0,6.1-12.33C39.92,16.07,32.54,9,23.47,9A17.49,17.49,0,0,0,21,9.14h-.18l.14.11a11.7,11.7,0,0,1,4.2,5.1,7.54,7.54,0,0,1,.22.94,4.89,4.89,0,0,0,.47,1.49c.28.47,1.94,1.17,3.14,1.69l.92.4a.88.88,0,0,1,.56.75,1,1,0,0,1-.26.65,4.47,4.47,0,0,0-1,1.45h0s.9.79.94,1.26a1.5,1.5,0,0,1-.44,1.18l-.16.22-.05.07h.1c.35.16,1,.46,1,.76a1.85,1.85,0,0,1-.16.92,2.25,2.25,0,0,0-.16.77,1.93,1.93,0,0,0,.33.86,3,3,0,0,1,.36.86,2.14,2.14,0,0,1-1.54,2.41c-.58.21-1.2.49-1.68.66l-1.93.69a7,7,0,0,0-4,4.69v.08H22c.31,0,.88.11,1.18.11h.44a9.98,9.98,0,0,0,1.17-.06,2.93,2.93,0,0,0,.74-.08h.22a1.55,1.55,0,0,1,1.16.36,1.15,1.15,0,0,1,.35.87h-.13a15.45,15.45,0,0,1-3.19.42h-.45a13.94,13.94,0,0,1-8.57-25.46c-.39,4.06,1.43,6.74,3.19,9.34,1.45,2.14,2.83,4.17,2.83,6.83,0,1.9-1.44,3.57-2.29,4.39a1.72,1.72,0,0,0-.58,1.41,1.29,1.29,0,0,0,.48.95h.05l.36-.35.48-.46c2.21-2.09,3.29-4,3.29-6a9.87,9.87,0,0,0-1.41-4.92c-.72-1.28-1.4-2.34-2-3.28-1.64-2.56-2.73-4.25-2.68-7.4a25.62,25.62,0,0,1,.26-3.52v-.13Zm6.68,31.89c-9.9,0-18-7.77-18-17.31s8.06-17.32,18-17.32,18,7.77,18,17.32-8.06,17.31-18,17.31" transform="translate(-5.48 -7.54)" fill="#1a1a18"/>
      <g id="Gruppe_13779" data-name="Gruppe 13779" transform="translate(-5.48 -7.54)">
        <path id="Pfad_46084" data-name="Pfad 46084" d="M32.66,33.1a.36.36,0,0,0-.27.1c-.23.22-.1.61.33,1a1.32,1.32,0,0,0,.81.44.36.36,0,0,0,.26-.11.4.4,0,0,0,.08-.46,1.52,1.52,0,0,0-.41-.58,1.25,1.25,0,0,0-.8-.43M33.48,35a1.52,1.52,0,0,1-1-.5c-.53-.52-.65-1.09-.29-1.43a.72.72,0,0,1,.5-.2,1.55,1.55,0,0,1,1,.49,1.66,1.66,0,0,1,.49.78.72.72,0,0,1-.7.86" fill="#1a1a18"/>
        <path id="Pfad_46085" data-name="Pfad 46085" d="M31.34,35.44a.38.38,0,0,0-.18.24.43.43,0,0,0,.09.31.41.41,0,0,0,.32.19.4.4,0,0,0,.24-.09l.23-.15-.47-.66Zm.16,1a.6.6,0,0,1-.49-.29.53.53,0,0,1,0-.68h0l-1-.63.29-.18.93.61.24-.16-.6-.83.24-.18L32.44,36l-.52.35a.78.78,0,0,1-.42.14" fill="#1a1a18"/>
        <path id="Pfad_46086" data-name="Pfad 46086" d="M29.33,37.71a.72.72,0,0,1-.32-.08l.08-.26a.65.65,0,0,0,.26.06.41.41,0,0,0,.19,0c.31-.14.34-.55.09-1.08s-.48-.66-.75-.66a.48.48,0,0,0-.2,0,.51.51,0,0,0-.22.18h0l.32.66.3-.13.11.22-.57.26-.5-1a1,1,0,0,1,.46-.42.86.86,0,0,1,.34-.07,1.2,1.2,0,0,1,1,.81,1.47,1.47,0,0,1,.18.88.74.74,0,0,1-.42.57.93.93,0,0,1-.35.08" fill="#1a1a18"/>
        <path id="Pfad_46087" data-name="Pfad 46087" d="M33.37,17.71a.21.21,0,0,1-.16-.08.2.2,0,0,1,.06-.28.23.23,0,0,1,.14,0,.17.17,0,0,1,.15.07.19.19,0,0,1-.05.28.24.24,0,0,1-.14.05" fill="#1a1a18"/>
        <path id="Pfad_46088" data-name="Pfad 46088" d="M34.49,19.55l1.44-1.61-.03-.06-.03.01-1.78.93-.24-.39,2.59-1.33.3.55-1.47,1.61.03.05.04-.01,1.79-.94.22.41-2.54,1.3-.06.03Z" fill="#1a1a18"/>
        <path id="Pfad_46089" data-name="Pfad 46089" d="M36.17,21.05l.18.62L37.63,21h0Zm-.73,1.09.53-.29-.22-.77h-.6L35,20.63l3-.08.19.64-2.65,1.45Z" fill="#1a1a18"/>
        <path id="Pfad_46090" data-name="Pfad 46090" d="M38.13,23.76l-2.41.26-.05-.51,2.41-.25-.07-.64.45-.04.2,1.76-.45.05Z" fill="#1a1a18"/>
        <path id="Pfad_46091" data-name="Pfad 46091" d="M37.28,26a.4.4,0,0,0,.39.44h.06a.36.36,0,0,0,.39-.37v-.31l-.84-.07Zm.48.95h-.1a.78.78,0,0,1-.71-.47h0l-1.39.43.09-.56L36.89,26v-.31l-1.2-.1v-.51l2.91.24-.08.85a.78.78,0,0,1-.8.81" fill="#1a1a18"/>
        <path id="Pfad_46092" data-name="Pfad 46092" d="M36,32.3l.42-.74-.64-.34-.39.68-.38-.2.39-.68-.72-.39-.45.78-.4-.22.69-1.22,2.56,1.36-.68,1.18Z" fill="#1a1a18"/>
        <path id="Pfad_46093" data-name="Pfad 46093" d="M33.41,32.26a.23.23,0,0,1-.14,0,.2.2,0,0,1,.11-.36.24.24,0,0,1,.23.19.23.23,0,0,1,0,.14.19.19,0,0,1-.16.07" fill="#1a1a18"/>
        <path id="Pfad_46094" data-name="Pfad 46094" d="M27.61,13.63l.23-1.72-.06-.02-.02.02-.88,1.5-.36-.1.28-2.22.29.09-.29,1.85.06.02.03-.02.93-1.62.29.09-.24,1.87.06.02.02-.02.91-1.63.28.09-1.16,1.94Z" fill="#1a1a18"/>
        <path id="Pfad_46095" data-name="Pfad 46095" d="M30.14,14.84l.61-1.65-.06-.03-.02.02-1.19,1.28-.33-.18.76-2.11.26.15-.69,1.75.06.04.03-.02,1.27-1.39.26.15-.65,1.77.05.04.03-.02,1.25-1.4.25.14-1.57,1.67Z" fill="#1a1a18"/>
        <path id="Pfad_46096" data-name="Pfad 46096" d="M32.31,16.57l.99-1.47-.04-.04-.03.01-1.47.98-.28-.25,1.25-1.88.22.21-1.09,1.55.05.04.03-.01,1.57-1.06.21.2-1.05,1.58.04.04.03-.01,1.55-1.08.22.19-1.93,1.27Z" fill="#1a1a18"/>
        <path id="Pfad_46097" data-name="Pfad 46097" d="M35.84,29.51a.944.944,0,0,1-.74-1.24.84.84,0,0,1,.85-.62,1.67,1.67,0,0,1,.52.09l1.77.59-.17.48-1.73-.58a1.54,1.54,0,0,0-.38-.07.37.37,0,0,0-.39.26c-.1.27.06.48.48.62l1.73.58-.17.48Z" fill="#1a1a18"/>
      </g>
    </g>
  </g>
</svg>
