<svg xmlns="http://www.w3.org/2000/svg" width="37.088" height="29.783" viewBox="0 0 37.088 29.783">
  <g id="Gruppe_15338" data-name="Gruppe 15338" transform="translate(-6611 -9539.889)">
    <path id="Pfad_98482" data-name="Pfad 98482" d="M11.4,27.61a.322.322,0,0,1-.09-.234v-6.1a.31.31,0,0,1,.3-.324h1.522a.34.34,0,0,1,.239.09.306.306,0,0,1,.1.234v.494a2.532,2.532,0,0,1,.9-.689,2.921,2.921,0,0,1,1.252-.259,2.412,2.412,0,0,1,1.857.773,3.069,3.069,0,0,1,.713,2.164V27.38a.32.32,0,0,1-.09.226.305.305,0,0,1-.234.1H16.224a.331.331,0,0,1-.324-.324v-3.55a1.363,1.363,0,0,0-.3-.941,1.1,1.1,0,0,0-.858-.33,1.12,1.12,0,0,0-.856.33,1.326,1.326,0,0,0-.312.941v3.544a.32.32,0,0,1-.09.226.3.3,0,0,1-.233.1H11.63A.315.315,0,0,1,11.4,27.61Zm8.916-.624a3.328,3.328,0,0,1-.933-2.453v-.451a3.319,3.319,0,0,1,.954-2.4,3.353,3.353,0,0,1,2.42-.863,3.6,3.6,0,0,1,1.862.451A2.861,2.861,0,0,1,25.758,22.5a4.028,4.028,0,0,1,.382,1.791V24.6a.32.32,0,0,1-.09.226.305.305,0,0,1-.234.1H21.663v.09a1.783,1.783,0,0,0,.3.986.916.916,0,0,0,.793.377.953.953,0,0,0,.532-.136,1.852,1.852,0,0,0,.376-.331.646.646,0,0,1,.188-.175.59.59,0,0,1,.227-.033h1.61a.3.3,0,0,1,.2.072.238.238,0,0,1,.084.188,1.273,1.273,0,0,1-.382.779,3.132,3.132,0,0,1-1.11.766,4.182,4.182,0,0,1-1.713.325A3.437,3.437,0,0,1,20.312,26.986Zm3.544-3.348v-.026a1.577,1.577,0,0,0-.292-1.006.973.973,0,0,0-.812-.37.96.96,0,0,0-.8.37,1.581,1.581,0,0,0-.291,1.006v.026ZM28,27.057a3.092,3.092,0,0,1-.7-2.164V21.275a.31.31,0,0,1,.3-.324h1.652a.348.348,0,0,1,.241.09.312.312,0,0,1,.1.234v3.547q0,1.272,1.129,1.272a1.106,1.106,0,0,0,.857-.337,1.33,1.33,0,0,0,.31-.934V21.277a.313.313,0,0,1,.1-.234.323.323,0,0,1,.227-.09h1.623a.312.312,0,0,1,.324.3v6.126a.32.32,0,0,1-.09.226.3.3,0,0,1-.232.1H32.322a.313.313,0,0,1-.227-.1.305.305,0,0,1-.1-.226v-.494a2.464,2.464,0,0,1-2.162.945A2.365,2.365,0,0,1,28,27.057ZM26.5,38.27H4.437V23.424A14.954,14.954,0,0,1,19.374,8.487h7.215A14.954,14.954,0,0,1,41.525,23.424,15.2,15.2,0,0,1,26.5,38.27Z" transform="translate(6606.563 9531.401)"/>
    <path id="Pfad_98483" data-name="Pfad 98483" d="M12.143,28.953a.322.322,0,0,1-.09-.234v-6.1a.31.31,0,0,1,.3-.324h1.522a.34.34,0,0,1,.239.09.306.306,0,0,1,.1.234v.494a2.532,2.532,0,0,1,.9-.689,2.921,2.921,0,0,1,1.252-.259,2.412,2.412,0,0,1,1.857.773,3.069,3.069,0,0,1,.713,2.164v3.622a.32.32,0,0,1-.09.226.305.305,0,0,1-.234.1H16.972a.331.331,0,0,1-.324-.324v-3.55a1.363,1.363,0,0,0-.3-.941,1.1,1.1,0,0,0-.858-.33,1.12,1.12,0,0,0-.856.33,1.326,1.326,0,0,0-.312.941v3.544a.32.32,0,0,1-.09.226.3.3,0,0,1-.233.1H12.378A.315.315,0,0,1,12.143,28.953Zm8.916-.624a3.328,3.328,0,0,1-.933-2.453v-.451a3.319,3.319,0,0,1,.954-2.4,3.353,3.353,0,0,1,2.42-.863,3.6,3.6,0,0,1,1.862.451,2.861,2.861,0,0,1,1.143,1.227,4.028,4.028,0,0,1,.382,1.791v.312a.32.32,0,0,1-.09.226.305.305,0,0,1-.234.1H22.41v.09a1.783,1.783,0,0,0,.3.986.916.916,0,0,0,.793.377.953.953,0,0,0,.532-.136,1.852,1.852,0,0,0,.376-.331.646.646,0,0,1,.188-.175.59.59,0,0,1,.227-.033h1.61a.3.3,0,0,1,.2.072.238.238,0,0,1,.084.188,1.273,1.273,0,0,1-.382.779,3.132,3.132,0,0,1-1.11.766,4.182,4.182,0,0,1-1.713.325A3.437,3.437,0,0,1,21.059,28.329ZM24.6,24.98v-.026a1.577,1.577,0,0,0-.292-1.006.973.973,0,0,0-.812-.37.96.96,0,0,0-.8.37,1.581,1.581,0,0,0-.291,1.006v.026Zm4.141,3.42a3.092,3.092,0,0,1-.7-2.164V22.617a.31.31,0,0,1,.3-.324h1.652a.348.348,0,0,1,.241.09.312.312,0,0,1,.1.234v3.547q0,1.272,1.129,1.272a1.106,1.106,0,0,0,.857-.337,1.33,1.33,0,0,0,.31-.934V22.62a.313.313,0,0,1,.1-.234.323.323,0,0,1,.227-.09h1.623a.312.312,0,0,1,.324.3v6.126a.32.32,0,0,1-.09.226.3.3,0,0,1-.232.1H33.07a.313.313,0,0,1-.227-.1.305.305,0,0,1-.1-.226v-.494a2.464,2.464,0,0,1-2.162.945A2.365,2.365,0,0,1,28.745,28.4Z" transform="translate(6606.069 9529.912)" fill="#fff"/>
  </g>
</svg>
