<svg xmlns="http://www.w3.org/2000/svg" width="85.009" height="21.816" viewBox="0 0 85.009 21.816">
  <g id="Gruppe_13719" data-name="Gruppe 13719" transform="translate(0)">
    <path id="Pfad_1609" data-name="Pfad 1609" d="M-.693-.827a6.1,6.1,0,0,1-.919.473,3.277,3.277,0,0,1-1.22.266A2.713,2.713,0,0,1-4.164-.347a.9.9,0,0,1-.456-.872,1.779,1.779,0,0,1,.34-1.143,2.431,2.431,0,0,1,1-.675A8.612,8.612,0,0,1-1.74-3.382c.534-.067,1.589-.189,1.724-.19s.225-.075.165.284c-.027.156-.331,1.407-.471,1.976a1.112,1.112,0,0,1-.371.485M3.448-9.618a8.92,8.92,0,0,0-4.181-.746,18.455,18.455,0,0,0-2.834.223c-.7.107-.768.124-1.2.218A1.369,1.369,0,0,0-5.795-8.838l-.286,1.175c-.162.752.267.721.457.663a12.025,12.025,0,0,1,1.391-.413,10.236,10.236,0,0,1,2.2-.3,5.791,5.791,0,0,1,2.122.3A1.077,1.077,0,0,1,.8-6.347a.793.793,0,0,1-.039.331c-.039.092-.114.181-.338.212-1.337.079-2.3.2-3.452.37A10.8,10.8,0,0,0-6-4.618,4.63,4.63,0,0,0-8.017-3.027,4.321,4.321,0,0,0-8.689-.584a2.872,2.872,0,0,0,.955,2.218,3.589,3.589,0,0,0,2.469.847A6.611,6.611,0,0,0-3.8,2.343a7.4,7.4,0,0,0,1.127-.386A5.835,5.835,0,0,0-1.7,1.423c.341-.227.578-.389.882-.588l.011.019L-.9,1.231S-.9,1.236-.9,1.24l0,.006a.692.692,0,0,0,.625.876l.006.008h.04l0,0,1.8,0h.334a.047.047,0,0,0,.033-.012,1.219,1.219,0,0,0,1-.879L4.651-6.137a4.24,4.24,0,0,0,.089-.6,4.569,4.569,0,0,0,.039-.563A2.466,2.466,0,0,0,3.448-9.618" transform="translate(65.739 14.021)"/>
    <path id="Pfad_1610" data-name="Pfad 1610" d="M-.953,0A2,2,0,0,0-2.423.9s-3.354,5.75-3.684,6.325c-.179.308-.36.112-.39,0-.025-.14-1.04-6.284-1.04-6.284A1.284,1.284,0,0,0-8.814.017l-2.091,0a.7.7,0,0,0-.707.893s1.6,9.06,1.91,11.192c.156,1.179-.017,1.388-.017,1.388L-11.79,17.1c-.3.49-.137.892.364.892l2.424,0a1.962,1.962,0,0,0,1.465-.89L1.787,1.336S2.678-.011,1.856,0C1.3.008-.953,0-.953,0" transform="translate(40.735 3.82)"/>
    <path id="Pfad_1611" data-name="Pfad 1611" d="M-1.335-.2A3.493,3.493,0,0,0-2.619-1.58,5.89,5.89,0,0,0-4.65-2.329a16.651,16.651,0,0,0-2.762-.22l-4.886,0a1.222,1.222,0,0,0-1.122.893l-3.294,14.322a.7.7,0,0,0,.709.894h2.34a1.2,1.2,0,0,0,1.122-.894l.806-3.476A1.2,1.2,0,0,1-10.622,8.3h.669a11.108,11.108,0,0,0,6.678-1.76A5.478,5.478,0,0,0-.889,1.907,4.361,4.361,0,0,0-1.335-.2M-6.389,4.476a4.91,4.91,0,0,1-2.953.775h-.574a.7.7,0,0,1-.713-.894l.7-3.037A1.192,1.192,0,0,1-8.808.431l.766,0A3.7,3.7,0,0,1-6.008.883a1.532,1.532,0,0,1,.675,1.394,2.523,2.523,0,0,1-1.055,2.2" transform="translate(16.738 2.549)"/>
    <path id="Pfad_1612" data-name="Pfad 1612" d="M-1.336-.2a3.573,3.573,0,0,0-1.289-1.38A5.8,5.8,0,0,0-4.66-2.331a16.386,16.386,0,0,0-2.753-.216l-4.9,0a1.217,1.217,0,0,0-1.115.892l-3.293,14.327a.693.693,0,0,0,.7.89l2.349,0a1.214,1.214,0,0,0,1.124-.885l.794-3.477a1.2,1.2,0,0,1,1.125-.889h.668a11.07,11.07,0,0,0,6.679-1.76A5.516,5.516,0,0,0-.889,1.9,4.535,4.535,0,0,0-1.336-.2M-6.388,4.483a4.95,4.95,0,0,1-2.952.766h-.582a.692.692,0,0,1-.709-.89l.7-3.04A1.2,1.2,0,0,1-8.817.432l.769,0A3.8,3.8,0,0,1-6.013.881a1.565,1.565,0,0,1,.68,1.4A2.572,2.572,0,0,1-6.388,4.483" transform="translate(59.232 2.601)"/>
    <path id="Pfad_1613" data-name="Pfad 1613" d="M-.693-.827a6.223,6.223,0,0,1-.918.473,3.328,3.328,0,0,1-1.222.265A2.715,2.715,0,0,1-4.164-.347a.9.9,0,0,1-.456-.872,1.78,1.78,0,0,1,.34-1.143,2.429,2.429,0,0,1,1-.675A8.716,8.716,0,0,1-1.74-3.382c.534-.067,1.59-.189,1.724-.19s.224-.075.164.284c-.026.156-.331,1.408-.471,1.976a1.13,1.13,0,0,1-.371.486M3.448-9.618a8.92,8.92,0,0,0-4.181-.746,18.349,18.349,0,0,0-2.834.223c-.7.106-.767.123-1.2.218A1.368,1.368,0,0,0-5.795-8.839l-.286,1.176c-.161.752.267.721.457.663a12.079,12.079,0,0,1,1.392-.414,10.4,10.4,0,0,1,2.2-.3,5.793,5.793,0,0,1,2.123.3A1.077,1.077,0,0,1,.795-6.348a.791.791,0,0,1-.037.331c-.04.093-.115.181-.34.212-1.335.081-2.294.2-3.452.371A10.781,10.781,0,0,0-6-4.618,4.616,4.616,0,0,0-8.016-3.027,4.3,4.3,0,0,0-8.689-.584a2.872,2.872,0,0,0,.955,2.218,3.586,3.586,0,0,0,2.468.847A6.683,6.683,0,0,0-3.8,2.343,7.421,7.421,0,0,0-2.67,1.957a5.866,5.866,0,0,0,.964-.534c.341-.227.579-.389.883-.588l.009.018L-.9,1.23S-.9,1.235-.9,1.24l0,.006a.691.691,0,0,0,.625.875l.006.009h.04v0l1.8,0h.334a.039.039,0,0,0,.033-.013,1.222,1.222,0,0,0,1-.878l1.71-7.378a4.236,4.236,0,0,0,.087-.6,4.68,4.68,0,0,0,.041-.563A2.468,2.468,0,0,0,3.448-9.618" transform="translate(23.236 14.01)"/>
    <path id="Pfad_1614" data-name="Pfad 1614" d="M-.552,0h-2.1a1.208,1.208,0,0,0-1.1.835c0,.018-.015.037-.018.056,0,0-.051.228-.137.622L-6.785,14.551c-.066.294-.11.487-.124.537l.006.006a.689.689,0,0,0,.624.875l.006.008H-4.1A1.211,1.211,0,0,0-3,15.154c.006-.022.017-.043.022-.065L.16.89h0A.7.7,0,0,0-.552,0" transform="translate(77.809 0.172)"/>
    <path id="Pfad_1615" data-name="Pfad 1615" d="M-.124-.253a1.888,1.888,0,0,1-.235.047,1.656,1.656,0,0,1-.227.018.7.7,0,0,1-.531-.188.845.845,0,0,1-.181-.6V-2.188h-.26v-.323h.26v-.654h.383v.654h.791v.323H-.916V-1.15c0,.119,0,.213.008.28a.461.461,0,0,0,.058.189.267.267,0,0,0,.123.12.572.572,0,0,0,.24.038.762.762,0,0,0,.2-.028A1.315,1.315,0,0,0-.144-.6h.019Z" transform="translate(81.346 3.315)"/>
    <path id="Pfad_1616" data-name="Pfad 1616" d="M-.288-.2H-.671V-1.5a2.825,2.825,0,0,0-.014-.283A.63.63,0,0,0-.741-2a.309.309,0,0,0-.135-.133.571.571,0,0,0-.252-.044.718.718,0,0,0-.322.08,1.9,1.9,0,0,0-.322.205c0,.031.006.067.009.11s0,.082,0,.122V-.2h-.383V-1.5c0-.1-.006-.2-.014-.286A.586.586,0,0,0-2.212-2a.306.306,0,0,0-.135-.132A.575.575,0,0,0-2.6-2.179a.711.711,0,0,0-.315.077,1.821,1.821,0,0,0-.316.2V-.2h-.384V-2.481h.384v.252a1.7,1.7,0,0,1,.358-.233.908.908,0,0,1,.38-.083.75.75,0,0,1,.395.1.608.608,0,0,1,.242.271,1.856,1.856,0,0,1,.424-.283.976.976,0,0,1,.409-.087.662.662,0,0,1,.554.226,1.013,1.013,0,0,1,.179.636Z" transform="translate(85.298 3.286)"/>
  </g>
</svg>
