<svg xmlns="http://www.w3.org/2000/svg" xmlns:xlink="http://www.w3.org/1999/xlink" width="212.727" height="67.865" viewBox="0 0 212.727 67.865">
  <defs>
    <clipPath id="clip-path">
      <rect id="Rechteck_4523" data-name="Rechteck 4523" width="212.727" height="67.865" fill="none"/>
    </clipPath>
  </defs>
  <g id="peclavus_logo_schwarz" transform="translate(106.363 33.933)">
    <g id="Gruppe_13826" data-name="Gruppe 13826" transform="translate(-106.363 -33.933)" clip-path="url(#clip-path)">
      <path id="Pfad_46227" data-name="Pfad 46227" d="M36.862,27.056c.126,4.174,1.518,5.818,6.071,5.818h.632c2.909,0,4.553-.632,5.312-2.024a2.277,2.277,0,0,1,1.518-.885,1.518,1.518,0,0,1,1.644,1.391l-.253.632c-1.265,2.4-3.668,3.541-8.221,3.541h-.632c-7.335,0-9.233-2.909-9.233-8.853V23.135c0-4.679,4.047-7.335,9.359-7.335S52.8,18.329,52.8,23.135v1.771a2.15,2.15,0,0,1-2.4,2.15Zm12.647-2.782V23.135c0-3.035-2.277-4.553-6.45-4.553s-6.2,1.644-6.2,4.553v1.138Z" transform="translate(8.921 4.183)" fill="#191816"/>
      <path id="Pfad_46228" data-name="Pfad 46228" d="M62.265,35.657c-6.577,0-9.865-2.529-9.865-7.841V23.39c0-5.059,3.162-7.588,9.865-7.588H67.7a1.518,1.518,0,0,1,1.644,1.391A1.518,1.518,0,0,1,67.7,18.584H62.265c-4.427,0-6.577,1.771-6.577,4.932v4.3c0,3.415,2.277,5.185,6.577,5.185H67.7a1.4,1.4,0,1,1,0,2.782Z" transform="translate(13.872 4.181)" fill="#191816"/>
      <path id="Pfad_46229" data-name="Pfad 46229" d="M70,37.229V11.05a1.644,1.644,0,0,1,3.162,0v26.18Z" transform="translate(18.531 2.609)" fill="#191816"/>
      <path id="Pfad_46230" data-name="Pfad 46230" d="M100.477,33.46l-6.45-15.683a2.276,2.276,0,0,1-.126-.885,1.391,1.391,0,0,1,.506-1.012,1.518,1.518,0,0,1,1.138-.379,1.771,1.771,0,0,1,1.012.379l.379.632,6.324,16.062a1.012,1.012,0,0,0,.885.379,1.138,1.138,0,0,0,.885-.379l6.45-16.188.253-.506a1.709,1.709,0,0,1,2.15,0,1.391,1.391,0,0,1,.506,1.012,2.4,2.4,0,0,1-.126.885L107.939,33.46a4.535,4.535,0,0,1-7.715,0" transform="translate(24.857 4.102)" fill="#191816"/>
      <path id="Pfad_46231" data-name="Pfad 46231" d="M129.609,16.892a1.644,1.644,0,0,1,3.162,0V29.287c0,4.047-3.668,6.324-7.968,6.324h-3.035c-4.3,0-7.968-2.277-7.968-6.324V16.892a1.655,1.655,0,0,1,3.288,0V29.287c0,2.4,2.15,3.668,4.806,3.668h3.035c2.529,0,4.806-1.265,4.806-3.668Z" transform="translate(30.126 4.102)" fill="#191816"/>
      <path id="Pfad_46232" data-name="Pfad 46232" d="M134.244,35.736a1.391,1.391,0,0,1-1.644-1.391,1.518,1.518,0,0,1,1.644-1.391h6.7c3.288,0,5.059-1.138,5.059-3.541s-1.644-2.277-5.312-2.782-7.715-1.518-7.715-5.818,3.288-5.312,8.094-5.312h5.944a1.391,1.391,0,1,1,0,2.782H141.2c-2.909,0-4.932.632-4.932,2.529s2.15,2.656,5.185,3.035c5.565.759,7.841,1.518,7.841,5.565s-2.782,6.324-8.347,6.324Z" transform="translate(35.103 4.103)" fill="#191816"/>
      <path id="Pfad_46233" data-name="Pfad 46233" d="M95.218,34.418a1.391,1.391,0,0,1-1.644,1.391,1.518,1.518,0,0,1-1.644-1.391h0a9.233,9.233,0,0,1-4.806,1.138H84.215c-4.174,0-7.715-2.024-7.715-5.944v-6.83C76.5,20,78.65,15.7,84.468,15.7H87.25c5.944,0,8.094,4.3,8.094,7.082ZM87.25,32.774c2.656,0,4.932-.885,4.932-3.162v-6.83a4.427,4.427,0,0,0-4.806-4.3H84.594a4.427,4.427,0,0,0-4.806,4.3v6.7c0,2.277,2.024,3.162,4.553,3.162Z" transform="translate(20.252 4.156)" fill="#191816"/>
      <path id="Pfad_46234" data-name="Pfad 46234" d="M18.488,43.624V35.53H26.2c4.3,0,7.841-2.4,7.841-6.324V22.882c0-2.782-2.15-7.082-7.968-7.082H23.294c-5.944,0-8.094,4.3-8.094,7.082V43.624M30.883,29.206c0,2.15-2.024,3.415-4.3,3.541H18.488V29.333h0v-6.45h0a4.427,4.427,0,0,1,4.806-4.174h2.782a4.427,4.427,0,0,1,4.806,4.3Z" transform="translate(4.024 4.183)" fill="#191816"/>
      <path id="Pfad_46235" data-name="Pfad 46235" d="M149.723,32.5a3.059,3.059,0,0,1,0-5.312,2.909,2.909,0,0,1,3.035,0,3.059,3.059,0,0,1,0,5.312,2.909,2.909,0,0,1-3.035,0M152.379,32a2.4,2.4,0,0,0,0-4.174l-1.138-.379-1.138.379a2.4,2.4,0,0,0,0,4.174l1.138.379L152.379,32m-2.277-.632h0V28.581h1.265l.885.253a.991.991,0,0,1,.253,1.265l-.379.379.506.885h-.885l-.506-.885h-.506v.885H150.1m1.265-1.644c.253,0,.506-.126.506-.379s-.126-.379-.506-.379h-.506v.759Z" transform="translate(39.227 7.085)" fill="#191816"/>
    </g>
  </g>
</svg>
