<svg id="profile" xmlns="http://www.w3.org/2000/svg" width="23.314" height="28.317" viewBox="0 0 23.314 28.317">
  <path id="Pfad_47288" data-name="Pfad 47288" d="M245.774,94.814,243.691,83.4a3.788,3.788,0,0,0-3.626-3.086H228.185a3.771,3.771,0,0,0-3.626,3.086l-2.083,11.5a.772.772,0,0,0,.231.694.866.866,0,0,0,.54.231h21.524a.927.927,0,0,0,1-.842A.939.939,0,0,0,245.774,94.814ZM226.333,83.7a1.827,1.827,0,0,1,1.852-1.543h11.8A1.9,1.9,0,0,1,241.84,83.7l1.929,10.338H224.481Zm7.561-4.938a5.632,5.632,0,1,0-5.632-5.632h0A5.632,5.632,0,0,0,233.894,78.767Zm-3.857-5.632a3.857,3.857,0,0,1,7.715,0h0a3.857,3.857,0,0,1-7.715,0Z" transform="translate(-222.464 -67.503)"/>
</svg>
