<svg xmlns="http://www.w3.org/2000/svg" width="79.701" height="8.877" viewBox="0 0 79.701 8.877">
  <path id="Pfad_46028" data-name="Pfad 46028" d="M28.581,6.7c0-1.68-1.306-2.661-3.578-2.661H21.281l-1.828,8.583h2.129l.509-2.4h1.8l1.437,2.4h2.233L25.97,9.977A3.313,3.313,0,0,0,28.581,6.7ZM24.22,8.641h-1.8l.64-2.979h1.672c1.084,0,1.711.392,1.711,1.226C26.44,8.028,25.617,8.641,24.22,8.641Zm13.216-3,.353-1.594H30.88l-1.828,8.583H36.13l.353-1.594H31.494l.418-1.986h4.257L36.5,7.5H32.251l.392-1.864Zm5.158,7.136a4.984,4.984,0,0,0,3.866-1.484l-1.254-1.2a3.283,3.283,0,0,1-2.429.993c-1.645,0-2.56-.858-2.56-2.158a3.246,3.246,0,0,1,3.4-3.335A2.553,2.553,0,0,1,45.82,6.593l1.528-1.177A4.167,4.167,0,0,0,43.756,3.9c-3.4,0-5.681,2.219-5.681,5.15C38.076,11.253,39.8,12.773,42.594,12.773Zm12.863-8.73-.718,3.372H50.6l.718-3.372H49.189l-1.828,8.583h2.129l.744-3.494h4.14l-.744,3.494h2.116l1.828-8.583Zm10.578,0L64.9,9.426,61.491,4.043h-1.75l-1.828,8.583H60l1.149-5.37,3.408,5.37H66.3l1.828-8.583Zm6.739,8.73a4.365,4.365,0,0,0,4.675-3.838l1.032-4.892H76.4l-1.019,4.77c-.353,1.606-1.1,2.268-2.377,2.268-1.136,0-1.763-.5-1.763-1.545a3.779,3.779,0,0,1,.078-.723l1.019-4.77H70.215L69.2,8.849a4.605,4.605,0,0,0-.1.92C69.091,11.62,70.476,12.773,72.774,12.773Zm14.1-8.73L85.742,9.426,82.334,4.043h-1.75l-1.828,8.583h2.09l1.149-5.37,3.408,5.37h1.737l1.828-8.583ZM95.9,10.774a3.75,3.75,0,0,1-1.515.307c-1.737,0-2.651-.871-2.651-2.158a3.28,3.28,0,0,1,3.513-3.335,2.948,2.948,0,0,1,2.39.956l1.515-1.153a4.653,4.653,0,0,0-3.813-1.5c-3.461,0-5.746,2.219-5.746,5.15,0,2.219,1.75,3.727,4.519,3.727a6.087,6.087,0,0,0,3.5-1.042L98.37,8.2H96.438Z" transform="translate(-19.453 -3.896)"/>
</svg>
