<svg xmlns="http://www.w3.org/2000/svg" width="57.46" height="60.742" viewBox="0 0 57.46 60.742">
  <g id="Gruppe_15330" data-name="Gruppe 15330" transform="translate(-663.824)">
    <path id="Pfad_47943" data-name="Pfad 47943" d="M42.977,20.407h-2.7l.909-10.436V9.887a1.141,1.141,0,0,0-.669-1.036L40.454,8.8,26.275,8.76a1.14,1.14,0,1,0,0,2.28H38.81L37.064,31.123H12.487l.345-3.572H17.3a1.141,1.141,0,0,0,0-2.281H13.053l.817-8.44H21.2a1.141,1.141,0,0,0,0-2.281H14.092l.34-3.534h7.735a1.141,1.141,0,1,0,0-2.282H13.4a1.137,1.137,0,0,0-1.114.916L11.8,14.56H3.313a1.141,1.141,0,1,0,0,2.281h8.267l-.818,8.441H8.527a1.141,1.141,0,1,0,0,2.281h2.014l-1.2,12.4a1.2,1.2,0,0,0,.191.9.952.952,0,0,0,.776.314c.825,0,2.577.006,3.055.008a5.972,5.972,0,0,0,11.726,0H36.139a5.972,5.972,0,0,0,5.847,4.836c.059,0,.118,0,.178,0a6.078,6.078,0,0,0,5.7-4.838h2.909a1.082,1.082,0,0,0,1.13-1.034c.061-.49.6-4.872.856-7.788.083-.966.123-1.638.123-2.053A9.94,9.94,0,0,0,42.977,20.407ZM39.771,26.26l.312-3.571h2.17l-.31,3.571ZM19.247,36.369a3.695,3.695,0,1,1-3.695,3.695A3.7,3.7,0,0,1,19.247,36.369Zm19.2-3.449Zm.214-.17Zm5.564-6.381.307-3.522a7.634,7.634,0,0,1,6.082,7.467c0,.156-.008.35-.02.579a4.37,4.37,0,0,1-1.855-1.574A7.344,7.344,0,0,0,44.221,26.369Zm6.165,6.875c-.171,1.863-.428,4.087-.621,5.68h-1.9a5.973,5.973,0,0,0-11.726,0H25.11a5.973,5.973,0,0,0-11.726,0H11.732l.533-5.516H38.094a1.067,1.067,0,0,0,1.134-1.044l.333-3.826h3.4c2.052,0,2.949,1.029,3.983,2.213A6.422,6.422,0,0,0,50.386,33.244ZM42,36.369a3.695,3.695,0,1,1-3.695,3.695A3.7,3.7,0,0,1,42,36.369Zm8.979,4.384h0Zm.294-.169Zm-.11.084ZM9.5,22.69H5.927a1.141,1.141,0,0,1-.806-1.951,1.05,1.05,0,0,1,.817-.33H9.5a1.141,1.141,0,1,1,0,2.282ZM42,43.152a3.088,3.088,0,1,0-3.089-3.088A3.091,3.091,0,0,0,42,43.152Zm-.808-3.087a.808.808,0,1,1,.236.572A.8.8,0,0,1,41.193,40.065ZM19.247,43.152a3.088,3.088,0,1,0-3.089-3.088A3.091,3.091,0,0,0,19.247,43.152Zm-.81-3.087a.809.809,0,1,1,.808.81A.81.81,0,0,1,18.438,40.065Z" transform="translate(661.652 14.718)"/>
    <path id="icon-rotate_full" d="M38.815,33.284a17,17,0,0,1,2.92,7.07A1.391,1.391,0,1,1,39,40.836,14.3,14.3,0,0,0,11.18,39.1l6.05-.8a1.347,1.347,0,0,1,.36,2.67h0l-8.21,1.08a1.319,1.319,0,0,1-1.35-.76l-3.44-7a1.32,1.32,0,0,1,.61-1.75,1.3,1.3,0,0,1,1.737.6v.007l2.09,4.29a17,17,0,0,1,29.779-4.06Z" transform="matrix(0.819, 0.574, -0.574, 0.819, 702.14, -24.085)" fill="#1a1a18"/>
  </g>
</svg>
