<svg xmlns="http://www.w3.org/2000/svg" width="72.211" height="20.615" viewBox="0 0 72.211 20.615">
  <g id="Gruppe_13720" data-name="Gruppe 13720" transform="translate(0 0.409)">
    <path id="Pfad_46022" data-name="Pfad 46022" d="M21.134,10.094H16.194a3.178,3.178,0,0,0-.285-1.632q-.441-.615-2.434-.615a6.015,6.015,0,0,0-2.562.354q-.626.356-.626,1.546a1.54,1.54,0,0,0,.555,1.418,2.312,2.312,0,0,0,1.054.284l1,.07q3.2.213,4,.3a6.109,6.109,0,0,1,3.673,1.347,3.569,3.569,0,0,1,1.068,2.226,15.556,15.556,0,0,1,.1,1.858,9.826,9.826,0,0,1-.455,3.489q-.825,2.03-3.709,2.566a21.81,21.81,0,0,1-3.7.227,22.77,22.77,0,0,1-5.784-.5,3.772,3.772,0,0,1-2.644-2.464,11.7,11.7,0,0,1-.355-3.441h4.941c0,.179,0,.316,0,.41q0,1.285.738,1.653a2.9,2.9,0,0,0,1.235.269h1.816a6.572,6.572,0,0,0,1.774-.143,1.446,1.446,0,0,0,.895-.864,3.3,3.3,0,0,0,.113-.95q0-1.3-.95-1.587a29.624,29.624,0,0,0-3.3-.312q-2.369-.169-3.29-.326a4.389,4.389,0,0,1-3.234-1.87,7.351,7.351,0,0,1-.709-3.642A9.43,9.43,0,0,1,5.5,6.8a3.258,3.258,0,0,1,1.236-1.7,6.261,6.261,0,0,1,3.2-1.049q1.619-.141,3.594-.142a19.211,19.211,0,0,1,4.433.356q3.225.867,3.225,4.855C21.182,9.332,21.166,9.659,21.134,10.094Z" transform="translate(-5.091 -3.8)"/>
    <path id="Pfad_46023" data-name="Pfad 46023" d="M162.861,23.2V3.468h9.895a11.056,11.056,0,0,1,3.1.332,4.821,4.821,0,0,1,3.279,3.132,12.1,12.1,0,0,1,.433,3.74,13.92,13.92,0,0,1-.477,4.316,4.445,4.445,0,0,1-3.914,2.988q-.348.058-2.961.1l-.882.029h-3.166V23.2Zm5.311-9.672h3.311a5.923,5.923,0,0,0,1.918-.245,1.419,1.419,0,0,0,.629-1.036,8.719,8.719,0,0,0,.1-1.539,6.348,6.348,0,0,0-.2-1.857,1.585,1.585,0,0,0-1.373-1.036q-.215-.028-1.03-.029h-3.355Z" transform="translate(-125.09 -3.468)"/>
    <path id="Pfad_46024" data-name="Pfad 46024" d="M236.97,19.791h-7.1l-.954,3.41H223.42l5.929-19.733h8.012l6,19.733h-5.379Zm-1.055-3.844-2.488-8.554-2.415,8.554Z" transform="translate(-171.151 -3.468)"/>
    <path id="Vereinigungsmenge_20" data-name="Vereinigungsmenge 20" d="M3.7,13.679H.124l.056-.12L1.5,10.732l.022-.049h1.4c-.027-.294-.04-.589-.04-.876,0-.219.009-.451.029-.707H0l.056-.12L1.374,6.154,1.4,6.1H3.627A9.846,9.846,0,0,1,7.234,1.726,10.206,10.206,0,0,1,19.891,2.758l.044.042-.025.056L18.765,5.311l-.058.123-.085-.105A6.905,6.905,0,0,0,7.345,6.1H18.307l-.057.12L16.932,9.052,16.91,9.1H6.361c-.019.208-.028.418-.028.626a7.1,7.1,0,0,0,.066.958h9.773l-.056.12L14.8,13.631l-.022.048H7.56a6.9,6.9,0,0,0,10.89.646l.148-.169v3.735l-.038.025a10.139,10.139,0,0,1-5.644,1.7A10.03,10.03,0,0,1,3.7,13.679ZM3.752,13.679ZM16.038,10.853Zm-9.629-.1Z" transform="translate(17.183 0.091)" stroke="rgba(0,0,0,0)" stroke-width="1"/>
  </g>
</svg>
