<svg xmlns="http://www.w3.org/2000/svg" width="33.648" height="42.497" viewBox="0 0 33.648 42.497">
  <path id="Pfad_45963" data-name="Pfad 45963" d="M25.868,44.773a.95.95,0,0,1,.657-1.628,1.034,1.034,0,0,1,.674.274.949.949,0,0,1-1.331,1.353ZM43.353,9.027V45.4a3.068,3.068,0,0,1-3.061,3.062H12.767A3.069,3.069,0,0,1,9.7,45.4V9.027a3.07,3.07,0,0,1,3.062-3.062H40.291A3.069,3.069,0,0,1,43.353,9.027ZM31.59,8.159H21.468v3.06a.645.645,0,0,0,.644.644h8.833a.647.647,0,0,0,.644-.644Zm-12.312,0H12.767a.874.874,0,0,0-.87.87V45.4a.873.873,0,0,0,.871.87H40.29a.872.872,0,0,0,.87-.87l0-36.369a.873.873,0,0,0-.871-.87h-6.51V9.243h5.193a1.1,1.1,0,0,1,1.1,1.1V44.087a1.1,1.1,0,0,1-1.1,1.1l-9.334-.012a1.1,1.1,0,0,1-.925-1.249,1.074,1.074,0,0,1,1.118-.933h8.049V11.435h-4.11a2.845,2.845,0,0,1-2.828,2.621H22.113a2.845,2.845,0,0,1-2.829-2.621H15.175V42.99l8.253.015a1.1,1.1,0,0,1,.91,1.245,1.161,1.161,0,0,1-1.118.933H14.078a1.1,1.1,0,0,1-1.1-1.1V10.338a1.1,1.1,0,0,1,1.1-1.1h5.2ZM24.2,16.892v5.242a.954.954,0,0,1-.949.95H18.009a.954.954,0,0,1-.95-.949V16.892a.954.954,0,0,1,.949-.95h5.244A.954.954,0,0,1,24.2,16.892Zm-1.9,4.292V17.841H18.959v3.342ZM24.2,25.9v5.243a.952.952,0,0,1-.95.95H18.009a.952.952,0,0,1-.95-.95V25.9a.953.953,0,0,1,.949-.95h5.244A.953.953,0,0,1,24.2,25.9Zm-1.9,4.293V26.851H18.959v3.344Zm1.9,4.717v5.243a.954.954,0,0,1-.949.95H18.009a.955.955,0,0,1-.95-.95V34.911a.952.952,0,0,1,.95-.949h5.243A.952.952,0,0,1,24.2,34.911ZM22.3,39.2V35.861H18.959V39.2Zm6.724-17.176a.949.949,0,0,0,1.342,0l3.7-3.7a.956.956,0,0,0,0-1.337h0a.952.952,0,0,0-1.343,0L29.7,20.015l-1.151-1.151A.949.949,0,1,0,27.2,20.206ZM34.065,26a.955.955,0,0,0-1.344,0L29.7,29.027l-1.151-1.151a.943.943,0,0,0-.672-.279h0a.95.95,0,0,0-.672,1.621l1.823,1.822a.949.949,0,0,0,1.342,0l3.7-3.7a.954.954,0,0,0,0-1.335Zm0,9.012a.953.953,0,0,0-1.344,0L29.7,38.036l-1.151-1.15A.95.95,0,0,0,27.2,38.228l1.823,1.822a.946.946,0,0,0,1.342,0l3.7-3.7a.954.954,0,0,0,0-1.335Z" transform="translate(-9.705 -5.965)"/>
</svg>
