<svg xmlns="http://www.w3.org/2000/svg" width="36.762" height="37.53" viewBox="0 0 36.762 37.53">
  <g id="vegan" transform="translate(18.381 18.765)">
    <g id="vegan-2" data-name="vegan" transform="translate(-18.381 -18.765)">
      <path id="Pfad_46121" data-name="Pfad 46121" d="M24,44A18.58,18.58,0,0,1,5.62,25.21,18.58,18.58,0,0,1,24,6.47,18.58,18.58,0,0,1,42.38,25.21,18.58,18.58,0,0,1,24,44ZM24,8.88A16.17,16.17,0,0,0,8,25.21,16.17,16.17,0,0,0,24,41.54,16.17,16.17,0,0,0,40,25.21,16.17,16.17,0,0,0,24,8.88Z" transform="translate(-5.619 -6.47)" fill="#1a1a18"/>
      <g id="Gruppe_13785" data-name="Gruppe 13785" transform="translate(-5.619 -6.47)">
        <path id="Pfad_46122" data-name="Pfad 46122" d="M24.67,20a.74.74,0,0,1,.94.44l2.27,6.24a32.33,32.33,0,0,1,3.82,3.06,15.45,15.45,0,0,0-.83-8,7.57,7.57,0,0,0-4.45-4.48c-6.11-2.17-15,1.47-15.36,1.62a.44.44,0,0,0-.25.52,32.3,32.3,0,0,0,6.24,11.3,8.35,8.35,0,0,0,6.45,2.61,13.8,13.8,0,0,0,1.89-.14A12.65,12.65,0,0,0,31,31.05h0c-.41-.38-.84-.77-1.31-1.17a26.48,26.48,0,0,0-3.4-2.51c-.78-.49-1.58-1-2.37-1.45h-.05l-4.8.73H19a.73.73,0,0,1-.11-1.45l3.1-.48c-2.94-1.72-5.34-3-5.38-3.07a.732.732,0,1,1,.71-1.28c.05,0,4.41,2.45,8.6,5l-1.64-4.48A.74.74,0,0,1,24.67,20Z" fill="#1a1a18"/>
        <path id="Pfad_46123" data-name="Pfad 46123" d="M35.1,33.28a34.42,34.42,0,0,0-3.4-3.57h0A2.92,2.92,0,0,1,31,31h0a35,35,0,0,1,3,3.14.73.73,0,0,0,.57.28.8.8,0,0,0,.46-.16A.74.74,0,0,0,35.1,33.28Z" fill="#1a1a18"/>
        <path id="Pfad_46124" data-name="Pfad 46124" d="M31,31Z" fill="#1a1a18"/>
      </g>
    </g>
  </g>
</svg>
