<svg id="Gruppe_13724" data-name="Gruppe 13724" xmlns="http://www.w3.org/2000/svg" width="61.436" height="35.028" viewBox="0 0 61.436 35.028">
  <g id="Gruppe_13704" data-name="Gruppe 13704" transform="translate(6.102 25.167)">
    <path id="Pfad_45977" data-name="Pfad 45977" d="M412.935,116.065c.15-.43.287-.821.422-1.211q.451-1.3.9-2.59c.018-.051.019-.116.108-.116.506,0,1.012,0,1.537,0-.129.342-.252.669-.376,1q-.851,2.237-1.7,4.475a.185.185,0,0,1-.208.149c-.461-.01-.924-.006-1.386,0a.149.149,0,0,1-.17-.114q-1.018-2.69-2.048-5.375c-.038-.1-.034-.133.087-.131.437.006.875.007,1.312,0a.188.188,0,0,1,.218.153C412.058,113.543,412.491,114.784,412.935,116.065Z" transform="translate(-399.55 -109.689)"/>
    <path id="Pfad_45978" data-name="Pfad 45978" d="M477.158,110.736a2.868,2.868,0,0,1,.387-.442,2.1,2.1,0,0,1,1.477-.486,2.016,2.016,0,0,1,1.873,1.074,2.594,2.594,0,0,1,.278,1.263c.005,1.1,0,2.2,0,3.3,0,.118-.039.138-.144.135-.238-.007-.477-.008-.716,0-.112,0-.141-.027-.141-.139,0-1.092,0-2.183,0-3.274a1.47,1.47,0,0,0-.267-.925,1.355,1.355,0,0,0-1.317-.487,1.488,1.488,0,0,0-1.415,1.46c-.045.51-.016,1.02-.021,1.531q-.008.848,0,1.7c0,.114-.03.142-.14.138q-.358-.013-.716,0c-.111,0-.139-.025-.139-.138q.006-2.2,0-4.4c0-1.066,0-2.133,0-3.2,0-.111.025-.142.137-.137.243.01.487.009.73,0,.108,0,.127.033.127.133,0,.9,0,1.806,0,2.708Z" transform="translate(-432.093 -107.505)"/>
    <path id="Pfad_45979" data-name="Pfad 45979" d="M443.933,111.838a2.658,2.658,0,0,1,2.313,1.358c.052.089.059.134-.048.189-.216.11-.423.237-.633.361-.058.035-.087.047-.132-.029a1.872,1.872,0,0,0-2.071-.87,1.937,1.937,0,0,0-1.508,1.659,1.974,1.974,0,0,0,3.616,1.371c.032-.055.056-.065.112-.031.225.135.451.268.682.394.087.048.075.092.031.162a2.752,2.752,0,0,1-1.888,1.3,2.924,2.924,0,0,1-3.535-3.292,2.81,2.81,0,0,1,1.859-2.391A3.17,3.17,0,0,1,443.933,111.838Z" transform="translate(-414.721 -109.537)"/>
    <path id="Pfad_45980" data-name="Pfad 45980" d="M468.233,117.763A2.483,2.483,0,0,1,466.3,117a1.888,1.888,0,0,1-.31-.47c-.029-.061-.028-.092.037-.128.238-.132.474-.268.708-.407.063-.038.077-.016.1.043a1.314,1.314,0,0,0,1.156.787,1.656,1.656,0,0,0,.944-.142.624.624,0,0,0,.372-.563.59.59,0,0,0-.322-.56,5.437,5.437,0,0,0-1.289-.485c-.166-.051-.335-.091-.5-.152a1.425,1.425,0,0,1-1.016-1.1,1.531,1.531,0,0,1,.574-1.533,2.378,2.378,0,0,1,3.361.595c.059.1.062.151-.054.209-.208.1-.409.223-.609.341-.07.041-.107.041-.144-.041a1.357,1.357,0,0,0-1.839-.454.6.6,0,0,0,.015,1.064,5.08,5.08,0,0,0,1.179.442c.171.051.342.1.513.151a1.443,1.443,0,0,1,1.108,1.19,1.517,1.517,0,0,1-.738,1.638A2.467,2.467,0,0,1,468.233,117.763Z" transform="translate(-427.078 -109.537)"/>
    <path id="Pfad_45981" data-name="Pfad 45981" d="M394.685,112.641q0,2.016,0,4.033a.691.691,0,0,1-.384.709.655.655,0,0,1-.934-.537c0-.049-.006-.1-.006-.149q0-4.077,0-8.154a.666.666,0,0,1,.515-.659.675.675,0,0,1,.764.4.711.711,0,0,1,.043.291Q394.684,110.61,394.685,112.641Z" transform="translate(-391.37 -107.585)"/>
    <path id="Pfad_45983" data-name="Pfad 45983" d="M399.073,114.705c0,.724,0,1.448,0,2.172a.9.9,0,0,1-1.764.25,1.066,1.066,0,0,1-.033-.279q0-2.141,0-4.284a.9.9,0,1,1,1.8-.016Q399.075,113.627,399.073,114.705Z" transform="translate(-393.293 -109.427)"/>
    <path id="Pfad_45985" data-name="Pfad 45985" d="M389.441,115.435v-3.11a.664.664,0,1,1,1.327-.008q0,3.1,0,6.2a.821.821,0,0,1-.107.471.666.666,0,0,1-.715.28.647.647,0,0,1-.5-.579,1.726,1.726,0,0,1-.006-.193Z" transform="translate(-389.441 -109.433)"/>
    <path id="Pfad_45986" data-name="Pfad 45986" d="M402.114,112.613c0-1.027,0-2.053,0-3.08a.663.663,0,0,1,.854-.678.627.627,0,0,1,.46.531.777.777,0,0,1,.012.133q0,3.109,0,6.219a.662.662,0,0,1-1.324.03c-.008-.258,0-.516,0-.773Z" transform="translate(-395.672 -108.055)"/>
    <path id="Pfad_45988" data-name="Pfad 45988" d="M424.3,114.953c0,.892,0,1.785,0,2.678,0,.112-.028.141-.14.139-.4-.007-.8-.005-1.207,0-.087,0-.12-.017-.12-.114q.005-2.7,0-5.4c0-.088.029-.106.111-.106.412,0,.825.006,1.237,0,.106,0,.117.039.117.128C424.3,113.168,424.3,114.06,424.3,114.953Z" transform="translate(-405.864 -109.69)"/>
    <path id="Pfad_45992" data-name="Pfad 45992" d="M424.316,108.222a.895.895,0,0,1-1.789-.009.895.895,0,1,1,1.789.009Z" transform="translate(-405.713 -107.311)"/>
    <path id="Pfad_45994" data-name="Pfad 45994" d="M433.067,112.125c0-.109-.036-.129-.135-.128q-.6.008-1.207,0c-.094,0-.13.019-.125.12.009.165,0,.33,0,.521a3.191,3.191,0,0,0-.428-.393,2.608,2.608,0,0,0-2.811.012,3.128,3.128,0,0,0-.4,4.782,2.637,2.637,0,0,0,2.99.469,2.25,2.25,0,0,0,.652-.535c0,.2.006.366,0,.529,0,.094.028.116.118.115q.611-.007,1.222,0c.094,0,.127-.019.127-.122Q433.061,114.811,433.067,112.125Zm-3.033,4.26a1.578,1.578,0,0,1,.015-3.155,1.578,1.578,0,0,1-.015,3.155Z" transform="translate(-407.93 -109.539)"/>
    <path id="Pfad_45995" data-name="Pfad 45995" d="M458.573,112.1c0-.106-.04-.121-.13-.119-.238.005-.477.01-.715,0-.126-.006-.147.041-.144.152.007.251,0,.5,0,.752-.138-.14-.245-.282-.379-.4a2.575,2.575,0,0,0-2.6-.515,2.941,2.941,0,0,0-1.942,3.467,2.883,2.883,0,0,0,2.706,2.323,2.436,2.436,0,0,0,1.976-.79c.077-.085.146-.178.241-.294,0,.3,0,.561,0,.823,0,.094.029.117.119.115.248-.006.5-.007.745,0,.1,0,.125-.026.125-.125Q458.569,114.791,458.573,112.1Zm-2.981,4.7a2.009,2.009,0,1,1,1.994-2.017A1.968,1.968,0,0,1,455.592,116.8Z" transform="translate(-420.504 -109.529)"/>
  </g>
  <g id="Gruppe_13705" data-name="Gruppe 13705" transform="translate(0.173 0)">
    <path id="Pfad_45982" data-name="Pfad 45982" d="M330.031,113.139a2.112,2.112,0,0,1,2.385-.748,1.639,1.639,0,0,1,1.058,1.317,2.949,2.949,0,0,1,.061.613c0,1.08,0,2.16,0,3.24,0,.14-.028.189-.179.184-.348-.013-.7-.013-1.043,0-.155.006-.177-.052-.176-.186.005-.958,0-1.916,0-2.874a2.752,2.752,0,0,0-.05-.574.8.8,0,0,0-.532-.694,1.006,1.006,0,0,0-1.009.208,1.633,1.633,0,0,0-.476,1.065,13.03,13.03,0,0,0-.03,1.522c-.007.457-.005.913,0,1.369,0,.121-.021.169-.156.165-.367-.01-.734-.009-1.1,0-.126,0-.146-.041-.146-.153q0-3.732,0-7.464c0-.125.04-.146.152-.144.36.007.721.009,1.082,0,.133,0,.157.043.157.164,0,.92,0,1.839,0,2.758Z" transform="translate(-286.679 -106.111)"/>
    <path id="Pfad_45984" data-name="Pfad 45984" d="M351.467,114.261a2.12,2.12,0,0,1,1.287-.746,2.389,2.389,0,0,1,1.09.043A1.652,1.652,0,0,1,355,115a3.089,3.089,0,0,1,.041.557c0,1.068,0,2.135,0,3.2,0,.131-.028.177-.167.172-.347-.011-.7-.011-1.043,0-.145,0-.182-.036-.181-.18,0-1,0-2.006,0-3.009a2.407,2.407,0,0,0-.044-.44.792.792,0,0,0-.583-.716,1.012,1.012,0,0,0-1.077.346,1.805,1.805,0,0,0-.377,1.132c-.018.887-.015,1.775-.006,2.661,0,.18-.053.212-.216.207-.347-.013-.7-.009-1.043,0-.118,0-.154-.03-.153-.15q0-2.527,0-5.054c0-.113.036-.142.144-.14q.522.009,1.043,0c.1,0,.136.03.132.132C351.462,113.9,351.467,114.082,351.467,114.261Z" transform="translate(-294.018 -107.303)"/>
    <path id="Pfad_45987" data-name="Pfad 45987" d="M314.022,117.87a.284.284,0,0,0,.2.028c.779,0,1.559,0,2.338,0,.141,0,.193.028.185.178-.013.25-.009.5,0,.752,0,.113-.022.157-.148.156q-2.077-.007-4.155,0c-.125,0-.163-.042-.146-.155a.091.091,0,0,0,0-.019,3.275,3.275,0,0,1,.022-.939c.09-.287.383-.489.588-.727q.964-1.118,1.934-2.229c.04-.047.078-.1.12-.148a.35.35,0,0,0-.217-.028c-.715,0-1.43-.007-2.145,0-.159,0-.194-.049-.188-.195.011-.25.008-.5,0-.752,0-.112.036-.14.144-.14q1.98,0,3.962,0c.1,0,.134.022.132.127q-.01.462,0,.926a.307.307,0,0,1-.107.215l-2.455,2.875C314.061,117.82,314.042,117.845,314.022,117.87Z" transform="translate(-281.09 -107.364)"/>
    <path id="Pfad_45990" data-name="Pfad 45990" d="M337.868,113.854c0-1.229,0-2.456,0-3.685,0-.153.042-.193.192-.188.354.011.708.007,1.063,0,.111,0,.157.015.157.144q-.006,3.732,0,7.466c0,.118-.032.154-.152.151-.36-.008-.721-.011-1.082,0-.153.005-.177-.049-.177-.186C337.87,116.323,337.868,115.089,337.868,113.854Z" transform="translate(-289.826 -106.111)"/>
    <path id="Pfad_45991" data-name="Pfad 45991" d="M307.756,114.707a2.2,2.2,0,0,1,.656-.93,1.43,1.43,0,0,1,1.145-.282c.1.013.115.056.114.139,0,.385,0,.771,0,1.157,0,.105-.034.115-.125.083a1.474,1.474,0,0,0-.592-.062.938.938,0,0,0-.849.654,3.728,3.728,0,0,0-.194,1.384q-.007.955,0,1.91c0,.122-.024.167-.156.163-.361-.01-.722-.007-1.082,0-.119,0-.166-.02-.166-.155q.009-2.508,0-5.016c0-.13.039-.161.163-.158.316.008.631.007.947,0,.111,0,.142.03.14.14C307.751,114.057,307.756,114.383,307.756,114.707Z" transform="translate(-279.126 -107.304)"/>
    <path id="Pfad_45993" data-name="Pfad 45993" d="M270.229,110.24c-.013-.753-.022-1.506-.038-2.258a1.03,1.03,0,0,0-.3-.716q-1.35-1.384-2.7-2.768a1.232,1.232,0,0,0-.716-.379.446.446,0,0,0-.17-.011h-4.632a.876.876,0,0,0-.7.284c-.425.434-.859.86-1.281,1.3-.5.518-1,1.026-1.5,1.54a1.111,1.111,0,0,0-.317.727c-.015.259-.054,5.219-.054,5.3a4.985,4.985,0,0,0,.284.541q2.439,3.566,4.871,7.136a5.255,5.255,0,0,0,.667.9.516.516,0,0,0,.817,0,2.517,2.517,0,0,0,.338-.407l5.281-7.742a1.174,1.174,0,0,0,.2-.692C270.265,112.077,270.245,111.158,270.229,110.24Zm-3,3.071a3.07,3.07,0,0,1-1.8,1.353,4.364,4.364,0,0,1-1.41.221c-.958-.006-1.916,0-2.874,0-.119,0-.143-.03-.143-.145,0-1.221,0-2.442,0-3.664s0-2.422,0-3.632c0-.113.038-.147.138-.171a15.117,15.117,0,0,1,3.06-.478,9.88,9.88,0,0,1,2.737.275c.126.032.137.076.1.19-.111.34-.214.682-.31,1.026-.03.106-.053.146-.183.116a9.8,9.8,0,0,0-4.01-.045c-.1.019-.125.05-.125.145,0,.577,0,1.154,0,1.73,0,1.019,0,2.037,0,3.056,0,.114.023.146.143.148a18.014,18.014,0,0,0,1.918-.023,1.723,1.723,0,0,0,1.516-.985,1.3,1.3,0,0,0,.109-.388.815.815,0,0,0-.5-.926,3.329,3.329,0,0,0-1.541-.235,7.083,7.083,0,0,0-.932.081c-.084.013-.1-.011-.1-.084,0-.327,0-.654,0-.982,0-.061.013-.089.082-.1a6.735,6.735,0,0,1,3.044.073,1.834,1.834,0,0,1,1.432,1.462A2.873,2.873,0,0,1,267.23,113.311Z" transform="translate(-257.819 -104.106)"/>
    <path id="Pfad_45996" data-name="Pfad 45996" d="M294.168,115.527a1.686,1.686,0,0,0-1.552-1.262c.009-.009.016-.021.027-.024.055-.017.112-.03.167-.047a1.533,1.533,0,0,0,1.144-1.184,1.686,1.686,0,0,0-.483-1.678,2.258,2.258,0,0,0-1.515-.528c-.881-.022-1.764-.01-2.646-.022-.155,0-.19.043-.19.192q.007,3.414,0,6.827c0,.155.032.207.2.2.8-.009,1.6,0,2.4-.005a3.879,3.879,0,0,0,1.011-.133A1.9,1.9,0,0,0,294.168,115.527Zm-3.588-2.718v-.752c0-.065-.01-.13.092-.129a5.633,5.633,0,0,1,1.191.068.817.817,0,0,1,.076,1.59,4.07,4.07,0,0,1-1.281.111c-.093,0-.079-.062-.079-.119Zm1.466,3.939a4.627,4.627,0,0,1-1.376.107c-.1,0-.09-.066-.09-.13V115.8c0-.3,0-.6,0-.9,0-.07,0-.124.1-.121a5.885,5.885,0,0,1,1.3.074.918.918,0,0,1,.763.909A.883.883,0,0,1,292.046,116.749Z" transform="translate(-273.192 -106.384)"/>
    <path id="Pfad_45997" data-name="Pfad 45997" d="M302.436,118.736c-.084-.98-.082-1.963-.076-2.945a5.412,5.412,0,0,0-.042-.692,1.639,1.639,0,0,0-1.265-1.522,4.38,4.38,0,0,0-2.757.242c-.053.021-.105.038-.1.117,0,.364,0,.727,0,1.091l.067.017a2.784,2.784,0,0,1,1.824-.551.931.931,0,0,1,.993.974c.009.113-.013.158-.14.156-.347-.005-.7,0-1.042.011a3.181,3.181,0,0,0-1.484.358,1.6,1.6,0,0,0-.294,2.562,2.012,2.012,0,0,0,1.939.389,1.812,1.812,0,0,0,1.083-.827c.014.231.03.406.035.583.005.16.059.231.24.219a7.936,7.936,0,0,1,.849,0C302.409,118.922,302.45,118.886,302.436,118.736Zm-1.36-1.976a1.276,1.276,0,0,1-.968,1.223,1.337,1.337,0,0,1-.631-.009.6.6,0,0,1-.51-.462.728.728,0,0,1,.259-.743,1.713,1.713,0,0,1,.979-.3c.121-.012.244,0,.366,0v-.007h.232C301.11,116.462,301.11,116.462,301.076,116.761Z" transform="translate(-276.087 -107.296)"/>
    <path id="Pfad_45998" data-name="Pfad 45998" d="M324.586,118.774c-.07-1.04-.088-2.08-.081-3.121a4.167,4.167,0,0,0-.044-.614,1.638,1.638,0,0,0-1.371-1.492,4.483,4.483,0,0,0-2.628.264.143.143,0,0,0-.108.155c.006.352,0,.7,0,1.111l.2-.127a2.717,2.717,0,0,1,1.738-.454.923.923,0,0,1,.934,1.009c0,.1-.026.119-.115.117-.264,0-.529-.009-.792,0a3.985,3.985,0,0,0-1.6.289,1.591,1.591,0,0,0-.942,1.678,1.52,1.52,0,0,0,1.072,1.307,2.04,2.04,0,0,0,2.439-.752c.018.215.039.423.049.631.005.108.047.143.154.141q.483-.009.966,0C324.565,118.917,324.593,118.892,324.586,118.774Zm-1.642-1.228a1.146,1.146,0,0,1-.955.468,1.665,1.665,0,0,1-.355-.036.609.609,0,0,1-.507-.44.713.713,0,0,1,.2-.722,1.536,1.536,0,0,1,1.016-.343c.262-.02.526-.007.79-.011.065,0,.11,0,.1.09A1.707,1.707,0,0,1,322.943,117.546Z" transform="translate(-283.652 -107.296)"/>
    <path id="Pfad_45999" data-name="Pfad 45999" d="M346.215,115.537a2.7,2.7,0,0,0-.607-1.372,2.275,2.275,0,0,0-1.6-.686,2.339,2.339,0,0,0-2.577,1.787,3.856,3.856,0,0,0-.067,1.755,2.375,2.375,0,0,0,.732,1.367,2.481,2.481,0,0,0,1.31.6,3.971,3.971,0,0,0,2.354-.287c.069-.033.159-.046.157-.165-.007-.339,0-.678,0-1.043a5.889,5.889,0,0,1-.781.359,3.188,3.188,0,0,1-.808.172,1.434,1.434,0,0,1-1.674-1.155c-.031-.155.007-.177.151-.176,1.114.006,2.228,0,3.342.007.137,0,.171-.037.166-.169A6.638,6.638,0,0,0,346.215,115.537Zm-1.345.191h-2.234a1.191,1.191,0,0,1,1.529-1.2,1.167,1.167,0,0,1,.8,1.123C344.963,115.737,344.92,115.728,344.87,115.728Z" transform="translate(-290.994 -107.302)"/>
  </g>
  <rect id="Rechteck_4453" data-name="Rechteck 4453" width="61.436" height="1.024" transform="translate(0 20.515)"/>
</svg>
