<svg id="Gruppe_13721" data-name="Gruppe 13721" xmlns="http://www.w3.org/2000/svg" width="64.898" height="19.899" viewBox="0 0 64.898 19.899">
  <path id="Pfad_1599" data-name="Pfad 1599" d="M0-1.671,3.285-20.948H8.54L5.253-1.671Z" transform="translate(22.863 21.284)"/>
  <path id="Pfad_1600" data-name="Pfad 1600" d="M-1.367-.07a13.579,13.579,0,0,0-4.71-.81c-5.192,0-8.849,2.614-8.88,6.361-.029,2.77,2.612,4.316,4.6,5.238,2.046.944,2.733,1.547,2.724,2.391-.014,1.292-1.633,1.883-3.143,1.883a11,11,0,0,1-4.946-1.012l-.677-.306-.737,4.316a16.642,16.642,0,0,0,5.853,1.029c5.523,0,9.109-2.585,9.15-6.586.02-2.194-1.38-3.862-4.412-5.238C-8.379,6.3-9.5,5.708-9.491,4.805c0-.8.952-1.658,3.009-1.658a9.681,9.681,0,0,1,3.932.739l.471.222Z" transform="translate(48.539 0.88)"/>
  <path id="Pfad_1601" data-name="Pfad 1601" d="M-1.267,0h-4.06A2.614,2.614,0,0,0-8.079,1.6l-7.8,17.666h5.518s.9-2.375,1.106-2.9l6.729.008c.157.675.64,2.889.64,2.889H2.985ZM-7.746,12.425c.434-1.111,2.094-5.389,2.094-5.389-.031.052.432-1.116.7-1.84L-4.6,6.858l1.217,5.566Z" transform="translate(61.913 0.354)"/>
  <path id="Pfad_1602" data-name="Pfad 1602" d="M-1.124,0-6.268,13.145l-.548-2.671a15.045,15.045,0,0,0-7.277-8.086l4.7,16.858,5.559-.006L4.441,0Z" transform="translate(19.58 0.349)"/>
  <path id="Pfad_1603" data-name="Pfad 1603" d="M-.74,0H-9.213L-9.28.4C-2.688,2,1.673,5.853,3.483,10.486L1.641,1.628A2.2,2.2,0,0,0-.74,0" transform="translate(9.28 0.338)"/>
</svg>
