<svg xmlns="http://www.w3.org/2000/svg" width="72.756" height="9.447" viewBox="0 0 72.756 9.447">
  <path id="Pfad_46029" data-name="Pfad 46029" d="M20.27,4.053l-4.136,6.511L14.659,4.053H12.48l2.127,9.134h2.075l5.78-9.134Zm5.754,9.29a5.364,5.364,0,0,0,5.65-5.48C31.674,5.514,30,3.9,27.224,3.9a5.364,5.364,0,0,0-5.65,5.48C21.575,11.725,23.245,13.343,26.024,13.343Zm.183-1.8a2.214,2.214,0,0,1-2.492-2.283A3.333,3.333,0,0,1,27.042,5.7,2.214,2.214,0,0,1,29.534,7.98,3.333,3.333,0,0,1,26.207,11.542ZM41.421,6.884c0-1.788-1.3-2.831-3.575-2.831H34.127L32.3,13.186h2.127l.509-2.557h1.8l1.435,2.557H40.4l-1.592-2.818A3.488,3.488,0,0,0,41.421,6.884ZM37.063,8.946h-1.8L35.9,5.775h1.67c1.083,0,1.709.418,1.709,1.3C39.281,8.293,38.459,8.946,37.063,8.946Zm9.877-.652,4.919-4.241h-1.7L44.317,9.1l1-5.05h-1.3l-1.827,9.134h1.3l.47-2.375,2.009-1.722,2.779,4.1h1.461l-3.3-4.867Zm11.169,4.893H59.4l-2.31-9.134H55.8l-5.976,9.134h1.409L52.681,10.9h4.88ZM53.347,9.859l2.871-4.5,1.083,4.5Zm10.23,3.432c2.27,0,3.862-1.07,3.862-2.844,0-2.779-4.684-1.866-4.684-3.784,0-.966.953-1.6,2.453-1.6a4.273,4.273,0,0,1,2.479.731l.522-1.07a5.425,5.425,0,0,0-2.936-.77c-2.231,0-3.8,1.083-3.8,2.831,0,2.923,4.684,1.944,4.684,3.849,0,.992-.992,1.553-2.466,1.553a4.511,4.511,0,0,1-2.962-1.044l-.574,1.044A5.343,5.343,0,0,0,63.577,13.291Zm8.1,0c2.27,0,3.862-1.07,3.862-2.844,0-2.779-4.684-1.866-4.684-3.784,0-.966.953-1.6,2.453-1.6a4.273,4.273,0,0,1,2.479.731l.522-1.07a5.425,5.425,0,0,0-2.936-.77c-2.231,0-3.8,1.083-3.8,2.831,0,2.923,4.684,1.944,4.684,3.849,0,.992-.992,1.553-2.466,1.553a4.511,4.511,0,0,1-2.962-1.044l-.574,1.044A5.343,5.343,0,0,0,71.679,13.291Zm13.335-8.1.222-1.135H78.791l-1.827,9.134h6.641l.222-1.135H78.491L79.078,9.1h4.593l.222-1.109H79.3l.561-2.805Z" transform="translate(-12.48 -3.896)"/>
</svg>
